<svg width="277" height="46" viewBox="0 0 277 46" fill="none" xmlns="http://www.w3.org/2000/svg">
<circle cx="23" cy="23" r="22.5" fill="white" stroke="#212121"/>
<g clip-path="url(#clip0)">
<path d="M14.1366 24.7654C15.8996 22.2277 16.9366 20.5928 17.6926 19.3846C14.787 19.6416 12.002 23.257 12.002 23.257L13.9198 25.1748C13.9755 25.033 14.0465 24.8953 14.1366 24.7654Z" fill="#212121"/>
<path d="M21.625 32.8799L23.5416 34.7964C23.5416 34.7964 27.1569 32.0116 27.414 29.106C26.2061 29.8618 24.5718 30.8984 22.0332 32.6618C21.9048 32.751 21.7679 32.8237 21.625 32.8799Z" fill="#212121"/>
<path d="M18.7108 31.8889C18.3817 32.0219 18.0584 32.1632 17.7213 32.2758C16.8209 32.5768 15.8935 32.7801 14.9533 32.9099C14.5592 32.9643 14.1615 33.0104 13.763 33.0406C13.7668 32.9914 13.7705 32.9422 13.7747 32.8931C13.8569 31.9351 14.0026 30.9821 14.2381 30.0492C14.3516 29.599 14.4963 29.1614 14.6518 28.7243C14.7484 28.4526 14.869 28.1926 14.9907 27.9326L14.7798 27.7219C14.3109 28.0369 13.903 28.4349 13.5569 28.8853C13.0445 29.5521 12.6604 30.3076 12.3919 31.1037C12.1034 31.9585 11.9314 32.8638 11.9046 33.7663C11.9008 33.8931 11.8921 34.0226 11.9118 34.1484C11.9371 34.3109 12.0084 34.4647 12.1156 34.5894C12.2217 34.7126 12.3614 34.8057 12.5161 34.8556C12.6461 34.8975 12.7767 34.8983 12.9114 34.8972C13.7308 34.8904 14.5628 34.7481 15.3471 34.515C16.7814 34.0889 18.2295 33.2871 19.0783 32.0202L18.8731 31.8151C18.8193 31.8404 18.7654 31.8652 18.7108 31.8889Z" fill="#212121"/>
<path d="M34.6669 12.1331C34.6669 12.1331 34.6667 12.133 34.6666 12.1329C34.5173 11.9837 34.315 11.9001 34.1045 11.9001C34.0993 11.9001 34.094 11.9002 34.0888 11.9003C31.5286 11.9505 25.2122 12.4294 21.8577 15.784C20.3349 17.3068 19.84 18.0994 18.7552 19.8366C17.974 21.0873 16.9045 22.8004 14.9498 25.6138C14.7302 25.93 14.7684 26.358 15.0406 26.6301L20.169 31.7585C20.3228 31.9125 20.5266 31.9916 20.7318 31.9916C20.8894 31.9916 21.0478 31.9449 21.1853 31.8495C23.9998 29.8943 25.7122 28.825 26.9624 28.0441C28.6994 26.9594 29.4923 26.4643 31.0153 24.9414C34.3758 21.5808 34.8513 15.2685 34.8995 12.7105C34.9037 12.4945 34.8196 12.2861 34.6669 12.1331ZM28.7284 21.8096C27.6959 22.8419 26.0222 22.8419 24.9897 21.8096C23.9571 20.7771 23.9572 19.1034 24.9898 18.071C26.0222 17.0385 27.6959 17.0384 28.7284 18.0708C29.7605 19.1032 29.7607 20.7772 28.7284 21.8096Z" fill="#212121"/>
</g>
<circle cx="254" cy="23" r="22.5" fill="white" stroke="#212121"/>
<path d="M255 8L255.041 8.37574C255.888 16.2006 262.158 22.3297 270 23C262.107 23.877 255.877 30.1074 255 38C254.159 30.0904 247.91 23.8414 240 23C247.826 22.3293 254.087 16.2228 254.954 8.41646L255 8Z" fill="#212121"/>
<rect x="46.5" y="0.5" width="184" height="45" rx="22.5" fill="white" stroke="#212121"/>
<path d="M72.22 21.94C72.22 19.8333 72.82 18.1 74.02 16.74C75.2333 15.38 76.8733 14.7 78.94 14.7C80.7667 14.7 82.2467 15.2067 83.38 16.22C84.5267 17.22 85.2067 18.5933 85.42 20.34H83.48C83.32 19.0733 82.8467 18.1 82.06 17.42C81.2733 16.7267 80.2333 16.38 78.94 16.38C77.42 16.38 76.24 16.8867 75.4 17.9C74.5733 18.9 74.16 20.2467 74.16 21.94C74.16 23.6333 74.5733 24.9867 75.4 26C76.2267 27.0133 77.4067 27.52 78.94 27.52C80.2333 27.52 81.2733 27.1733 82.06 26.48C82.8467 25.7867 83.32 24.8067 83.48 23.54H85.42C85.2067 25.3 84.5267 26.6867 83.38 27.7C82.2467 28.7 80.7667 29.2 78.94 29.2C76.8733 29.2 75.2333 28.52 74.02 27.16C72.82 25.8 72.22 24.06 72.22 21.94ZM87.3958 21.94C87.3958 19.8333 87.9958 18.1 89.1958 16.74C90.3958 15.38 92.0291 14.7 94.0958 14.7C96.1491 14.7 97.7758 15.38 98.9758 16.74C100.176 18.1 100.776 19.8333 100.776 21.94C100.776 24.06 100.176 25.8 98.9758 27.16C97.7758 28.52 96.1491 29.2 94.0958 29.2C92.0291 29.2 90.3958 28.52 89.1958 27.16C87.9958 25.8 87.3958 24.06 87.3958 21.94ZM89.3358 21.94C89.3358 23.6333 89.7424 24.9867 90.5558 26C91.3691 27.0133 92.5491 27.52 94.0958 27.52C95.6424 27.52 96.8158 27.0133 97.6158 26C98.4291 24.9867 98.8358 23.6333 98.8358 21.94C98.8358 20.26 98.4291 18.9133 97.6158 17.9C96.8158 16.8867 95.6424 16.38 94.0958 16.38C92.5491 16.38 91.3691 16.8867 90.5558 17.9C89.7424 18.9133 89.3358 20.26 89.3358 21.94ZM101.815 14.9H103.675L106.435 28.46H106.955L109.615 14.9H113.655L116.315 28.46H116.835L119.595 14.9H121.455L118.575 29H114.575L111.895 15.44H111.375L108.695 29H104.695L101.815 14.9ZM122.435 21.94C122.435 19.8333 123.035 18.1 124.235 16.74C125.435 15.38 127.068 14.7 129.135 14.7C131.188 14.7 132.815 15.38 134.015 16.74C135.215 18.1 135.815 19.8333 135.815 21.94C135.815 24.06 135.215 25.8 134.015 27.16C132.815 28.52 131.188 29.2 129.135 29.2C127.068 29.2 125.435 28.52 124.235 27.16C123.035 25.8 122.435 24.06 122.435 21.94ZM124.375 21.94C124.375 23.6333 124.782 24.9867 125.595 26C126.408 27.0133 127.588 27.52 129.135 27.52C130.682 27.52 131.855 27.0133 132.655 26C133.468 24.9867 133.875 23.6333 133.875 21.94C133.875 20.26 133.468 18.9133 132.655 17.9C131.855 16.8867 130.682 16.38 129.135 16.38C127.588 16.38 126.408 16.8867 125.595 17.9C124.782 18.9133 124.375 20.26 124.375 21.94ZM138.065 29V14.9H142.885C144.725 14.9 146.125 15.1867 147.085 15.76C148.058 16.3333 148.545 17.36 148.545 18.84C148.545 20.7333 147.605 21.8333 145.725 22.14V22.66H147.485C148.311 22.66 148.725 23.06 148.725 23.86V29H146.785V23.48H140.005V29H138.065ZM140.005 21.8H142.885C143.418 21.8 143.845 21.7867 144.165 21.76C144.498 21.7333 144.831 21.6733 145.165 21.58C145.511 21.4867 145.778 21.3467 145.965 21.16C146.151 20.9733 146.305 20.72 146.425 20.4C146.545 20.0667 146.605 19.66 146.605 19.18C146.605 18.7 146.545 18.3 146.425 17.98C146.305 17.66 146.151 17.4067 145.965 17.22C145.778 17.0333 145.511 16.8933 145.165 16.8C144.831 16.7067 144.498 16.6467 144.165 16.62C143.845 16.5933 143.418 16.58 142.885 16.58H140.005V21.8ZM163.087 14.9L154.507 21.94L163.087 29H160.247L153.247 23.22V29H151.307V14.9H153.247V20.68L160.247 14.9H163.087ZM173.117 16.58H169.957V27.32H173.117V29H164.857V27.32H168.017V16.58H164.857V14.9H173.117V16.58ZM175.506 29V14.9H179.406L185.866 28.46H186.406L186.066 27.14V14.9H188.026V29H184.126L177.646 15.44H177.106L177.446 16.76V29H175.506ZM190.169 21.94C190.169 19.8333 190.789 18.1 192.029 16.74C193.269 15.38 194.896 14.7 196.909 14.7C198.629 14.7 200.016 15.18 201.069 16.14C202.123 17.0867 202.756 18.3533 202.969 19.94H201.029C200.683 17.5667 199.309 16.38 196.909 16.38C195.363 16.38 194.176 16.88 193.349 17.88C192.523 18.8667 192.109 20.22 192.109 21.94C192.109 25.66 193.556 27.52 196.449 27.52C199.063 27.52 200.349 26 200.309 22.96H195.789V21.4H202.829C203.696 21.4 204.129 21.8067 204.129 22.62V29H202.189V23.82L202.509 21.94H201.989C201.963 26.78 200.103 29.2 196.409 29.2C194.396 29.2 192.849 28.5333 191.769 27.2C190.703 25.8667 190.169 24.1133 190.169 21.94Z" fill="#212121"/>
<defs>
<clipPath id="clip0">
<rect width="23" height="23" fill="white" transform="translate(11.8994 11.8988)"/>
</clipPath>
</defs>
</svg>
