<svg width="190" height="50" viewBox="0 0 190 50" fill="none" xmlns="http://www.w3.org/2000/svg">
<rect x="0.5" y="0.5" width="139" height="49" rx="24.5" fill="white" stroke="#212121"/>
<path d="M33.02 15.9C33.7933 15.9 34.4933 15.9467 35.12 16.04C35.7467 16.1333 36.3867 16.3333 37.04 16.64C37.7067 16.9333 38.26 17.3333 38.7 17.84C39.14 18.3333 39.5 19.0133 39.78 19.88C40.0733 20.7467 40.22 21.7667 40.22 22.94C40.22 24.1133 40.0733 25.1333 39.78 26C39.5 26.8667 39.14 27.5533 38.7 28.06C38.26 28.5533 37.7067 28.9533 37.04 29.26C36.3867 29.5667 35.7467 29.7667 35.12 29.86C34.4933 29.9533 33.7933 30 33.02 30H28.42V15.9H33.02ZM33.02 28.32C33.62 28.32 34.1267 28.3 34.54 28.26C34.9667 28.2067 35.4267 28.08 35.92 27.88C36.4267 27.6667 36.8333 27.3733 37.14 27C37.46 26.6267 37.7267 26.1 37.94 25.42C38.1533 24.7267 38.26 23.9 38.26 22.94C38.26 21.98 38.1533 21.16 37.94 20.48C37.7267 19.7867 37.46 19.26 37.14 18.9C36.8333 18.5267 36.4267 18.24 35.92 18.04C35.4267 17.8267 34.9667 17.7 34.54 17.66C34.1267 17.6067 33.62 17.58 33.02 17.58H30.36V28.32H33.02ZM49.4292 17.58H46.2692V28.32H49.4292V30H41.1692V28.32H44.3292V17.58H41.1692V15.9H49.4292V17.58ZM50.3294 22.94C50.3294 20.8333 50.9494 19.1 52.1894 17.74C53.4294 16.38 55.056 15.7 57.0694 15.7C58.7894 15.7 60.176 16.18 61.2294 17.14C62.2827 18.0867 62.916 19.3533 63.1294 20.94H61.1894C60.8427 18.5667 59.4694 17.38 57.0694 17.38C55.5227 17.38 54.336 17.88 53.5094 18.88C52.6827 19.8667 52.2694 21.22 52.2694 22.94C52.2694 26.66 53.716 28.52 56.6094 28.52C59.2227 28.52 60.5094 27 60.4694 23.96H55.9494V22.4H62.9894C63.856 22.4 64.2894 22.8067 64.2894 23.62V30H62.3494V24.82L62.6694 22.94H62.1494C62.1227 27.78 60.2627 30.2 56.5694 30.2C54.556 30.2 53.0094 29.5333 51.9294 28.2C50.8627 26.8667 50.3294 25.1133 50.3294 22.94ZM74.5855 17.58H71.4255V28.32H74.5855V30H66.3255V28.32H69.4855V17.58H66.3255V15.9H74.5855V17.58ZM88.2486 15.9V17.58H83.4086V30H81.4686V17.58H76.6286V15.9H88.2486ZM98.0917 30L96.4317 24.68H90.7317L89.0717 30H87.1317L91.5717 15.9H95.5917L100.032 30H98.0917ZM91.2517 23H95.9117L93.8517 16.44H93.3117L91.2517 23ZM103.177 30.2C102.764 30.2133 102.444 30.1067 102.217 29.88C101.99 29.6533 101.877 29.3267 101.877 28.9V15.9H103.817V28.52L110.857 28.32V30L103.177 30.2Z" fill="#212121"/>
<circle cx="165" cy="25" r="24.5" fill="white" stroke="#212121"/>
<path d="M155.962 34.2308L173.847 16.9231" stroke="#212121" stroke-width="2" stroke-linecap="square" stroke-linejoin="round"/>
<path d="M157.154 15.7692H175.039V33.0769" stroke="#212121" stroke-width="2" stroke-linecap="square" stroke-linejoin="round"/>
</svg>
