<svg width="8" height="12" viewBox="0 0 8 12" fill="none" xmlns="http://www.w3.org/2000/svg">
<path d="M4.06 11.14C2.968 11.14 2.128 10.9207 1.54 10.482C0.952 10.0433 0.658 9.38067 0.658 8.494C0.658 8.13933 0.709333 7.81733 0.812 7.528H0.154V6.632H1.33C1.51667 6.44533 1.764 6.27733 2.072 6.128C2.38933 5.96933 2.716 5.82933 3.052 5.708C3.39733 5.58667 3.70067 5.484 3.962 5.4C4.22333 5.30667 4.39133 5.24133 4.466 5.204H0.154V4.308H5.502C5.57667 4.17733 5.628 4.042 5.656 3.902C5.69333 3.762 5.712 3.58467 5.712 3.37C5.712 2.93133 5.56267 2.59067 5.264 2.348C4.96533 2.096 4.49867 1.97 3.864 1.97C3.40667 1.97 2.97267 2.03067 2.562 2.152C2.16067 2.27333 1.80133 2.40867 1.484 2.558L1.134 1.452C1.48867 1.284 1.92267 1.144 2.436 1.032C2.94933 0.92 3.44867 0.863999 3.934 0.863999C4.87667 0.863999 5.61867 1.06 6.16 1.452C6.71067 1.83467 6.986 2.42267 6.986 3.216C6.986 3.412 6.972 3.608 6.944 3.804C6.916 3.99067 6.86467 4.15867 6.79 4.308H7.56V5.204H6.342C6.19267 5.35333 5.95933 5.50733 5.642 5.666C5.32467 5.81533 4.99333 5.95533 4.648 6.086C4.30267 6.21667 3.99 6.32867 3.71 6.422C3.43 6.51533 3.248 6.58533 3.164 6.632H7.56V7.528H2.114C2.03933 7.668 1.988 7.79867 1.96 7.92C1.932 8.04133 1.918 8.20933 1.918 8.424C1.918 9.50667 2.66933 10.048 4.172 10.048C4.704 10.048 5.21733 9.98267 5.712 9.852C6.216 9.712 6.636 9.56733 6.972 9.418V10.552C6.65467 10.7013 6.23 10.8367 5.698 10.958C5.166 11.0793 4.62 11.14 4.06 11.14Z" fill="#212121"/>
</svg>
