<svg width="17" height="23" viewBox="0 0 17 23" fill="none" xmlns="http://www.w3.org/2000/svg">
<path d="M8.8498 22.3C6.4098 22.3 4.5798 21.76 3.3598 20.68C2.1598 19.6 1.5598 18.11 1.5598 16.21C1.5598 15.61 1.6298 15.07 1.7698 14.59H0.299805V12.37H2.9098C3.2698 11.95 3.6998 11.56 4.1998 11.2C4.6998 10.84 5.2598 10.51 5.8798 10.21H0.299805V7.99003H10.3198C10.8398 7.51003 11.0998 6.88003 11.0998 6.10003C11.0998 5.46003 10.8598 4.96003 10.3798 4.60003C9.9198 4.24003 9.2498 4.06003 8.3698 4.06003C7.5698 4.06003 6.7598 4.17003 5.9398 4.39003C5.1398 4.61003 4.2398 4.92003 3.2398 5.32003L1.8898 1.78003C2.9298 1.32003 4.0098 0.960029 5.1298 0.700029C6.2698 0.420029 7.4698 0.280029 8.7298 0.280029C10.8098 0.280029 12.4598 0.790029 13.6798 1.81003C14.9198 2.81003 15.5398 4.27003 15.5398 6.19003C15.5398 6.81003 15.4598 7.41003 15.2998 7.99003H16.8298V10.21H14.0398C13.5998 10.71 13.0798 11.13 12.4798 11.47C11.8798 11.79 11.2598 12.09 10.6198 12.37H16.8298V14.59H6.5698C6.1898 15.03 5.9998 15.57 5.9998 16.21C5.9998 16.95 6.2598 17.53 6.7798 17.95C7.2998 18.35 8.0798 18.55 9.1198 18.55C10.1998 18.55 11.2598 18.43 12.2998 18.19C13.3398 17.93 14.3798 17.59 15.4198 17.17V20.95C14.5598 21.37 13.5698 21.7 12.4498 21.94C11.3298 22.18 10.1298 22.3 8.8498 22.3Z" fill="#E00822"/>
</svg>
