<svg width="40" height="40" viewBox="0 0 40 40" fill="none" xmlns="http://www.w3.org/2000/svg">
<circle cx="20" cy="20" r="19.5" stroke="#E00822"/>
<path d="M24.166 11.6667H15.8327C13.5315 11.6667 11.666 13.5322 11.666 15.8334V24.1667C11.666 26.4679 13.5315 28.3334 15.8327 28.3334H24.166C26.4672 28.3334 28.3327 26.4679 28.3327 24.1667V15.8334C28.3327 13.5322 26.4672 11.6667 24.166 11.6667Z" stroke="#E00822" stroke-linecap="round" stroke-linejoin="round"/>
<path d="M23.3337 19.4749C23.4366 20.1685 23.3181 20.8768 22.9952 21.4991C22.6723 22.1215 22.1614 22.6261 21.5351 22.9413C20.9088 23.2566 20.1991 23.3663 19.5069 23.2549C18.8147 23.1435 18.1752 22.8167 17.6794 22.3209C17.1837 21.8251 16.8569 21.1857 16.7455 20.4935C16.6341 19.8012 16.7438 19.0915 17.059 18.4653C17.3742 17.839 17.8789 17.3281 18.5012 17.0051C19.1236 16.6822 19.8319 16.5638 20.5254 16.6666C21.2328 16.7715 21.8878 17.1012 22.3935 17.6069C22.8992 18.1126 23.2288 18.7675 23.3337 19.4749Z" stroke="#E00822" stroke-linecap="round" stroke-linejoin="round"/>
<path d="M24.584 15.4167H24.5923" stroke="#E00822" stroke-linecap="round" stroke-linejoin="round"/>
</svg>
