<svg width="40" height="40" viewBox="0 0 40 40" fill="none" xmlns="http://www.w3.org/2000/svg">
<circle cx="20" cy="20" r="19.5" stroke="#E00822"/>
<path d="M24.167 11.6665H15.8337C13.5325 11.6665 11.667 13.532 11.667 15.8332V24.1665C11.667 26.4677 13.5325 28.3332 15.8337 28.3332H24.167C26.4682 28.3332 28.3337 26.4677 28.3337 24.1665V15.8332C28.3337 13.532 26.4682 11.6665 24.167 11.6665Z" stroke="#E00822" stroke-linecap="round" stroke-linejoin="round"/>
<path d="M23.3337 19.4748C23.4366 20.1683 23.3181 20.8766 22.9952 21.4989C22.6723 22.1213 22.1614 22.6259 21.5351 22.9412C20.9088 23.2564 20.1991 23.3661 19.5069 23.2547C18.8147 23.1433 18.1752 22.8165 17.6794 22.3207C17.1837 21.825 16.8569 21.1855 16.7455 20.4933C16.6341 19.8011 16.7438 19.0913 17.059 18.4651C17.3742 17.8388 17.8789 17.3279 18.5012 17.005C19.1236 16.682 19.8319 16.5636 20.5254 16.6664C21.2328 16.7713 21.8878 17.101 22.3935 17.6067C22.8992 18.1124 23.2288 18.7673 23.3337 19.4748Z" stroke="#E00822" stroke-linecap="round" stroke-linejoin="round"/>
<path d="M24.583 15.4165H24.5913" stroke="#E00822" stroke-linecap="round" stroke-linejoin="round"/>
</svg>
