<svg width="148" height="60" viewBox="0 0 148 60" fill="none" xmlns="http://www.w3.org/2000/svg">
<path d="M50.4961 36.1016H46.6387V22.4883H50.5855C55.0551 22.4883 57.7757 24.8065 57.7757 29.2803C57.7757 33.7853 55.0571 36.1016 50.4961 36.1016Z" fill="#F8F8F8"/>
<path d="M40.4984 44.1292C40.4984 49.917 37.8244 54.4476 32.9331 57.16C29.6295 58.9919 25.3115 59.9961 20.119 59.9961C8.02195 60 0.0310928 54.5476 0 44.9137H12.614C13.1328 47.7537 16.3995 49.3855 20.2803 49.3855C24.3904 49.3855 26.9128 47.6889 26.9128 45.3707C26.9128 43.1505 25.1016 42.2032 19.8605 41.252L15.1694 40.4027C5.88626 38.7376 0.808414 34.003 0.808414 26.6913C0.808414 17.2222 8.89449 11.248 19.9907 11.248C25.3601 11.248 29.7073 12.3287 32.9331 14.3018C37.2084 16.9142 39.4918 21.0938 39.5287 26.3971H26.9128C26.8176 23.5356 23.9026 21.8685 20.152 21.8685C16.3354 21.8685 14.394 23.5669 14.394 25.6891C14.394 27.8112 16.3995 28.8271 21.0576 29.6705L25.7488 30.5197C28.5549 31.0316 30.9451 31.724 32.939 32.6242C38.0499 34.9405 40.4984 38.6376 40.4984 44.1292Z" fill="#F8F8F8"/>
<path d="M128.784 23.0766V30.6825H146.803V40.6086H128.784V48.1812H148V59.1841H115.068V58.3054C122.56 55.3635 127.401 48.748 127.447 40.183H114.314C113.893 45.6354 110.465 49.1285 105.742 49.1285C100.049 49.1285 96.5234 44.1017 96.5234 35.5799C96.5234 27.1581 100.082 22.1293 105.709 22.1293C110.465 22.1293 113.926 25.6891 114.25 31.0414H127.383C127.36 22.5706 122.459 15.9846 115.068 12.9975V12.0737H148V23.0766H128.784Z" fill="#F8F8F8"/>
<path d="M86.7426 19.786L84.331 12.3076H67.1152L65.7977 16.3812C69.2334 19.3722 71.2234 23.8871 71.2234 29.4807C71.2234 38.8145 65.2361 45.1711 56.1045 46.3479C56.1045 46.3479 52.4414 46.7931 46.25 46.1969V59.4121H65.854L68.2793 50.0508H82.512L84.9392 59.4199H99.5606L86.7426 19.786ZM70.7706 40.2875L75.2674 23.181H75.5259L80.0227 40.2894L70.7706 40.2875Z" fill="#F8F8F8"/>
<path d="M87.4483 3.42232L85.9947 8.85904H83.9193L81.665 0.150879H83.9309L85.0969 6.03477H85.1455L86.5874 0.150879H88.3364L89.7783 6.03477H89.825L90.991 0.150879H93.2588L91.0026 8.85904H88.9427L87.4891 3.42232H87.4483ZM99.7883 7.0723V8.85904H93.8612V0.150879H99.7747V1.93762H96.063V3.66945H99.5609V5.29536H96.063V7.06053L99.7883 7.0723ZM104.853 8.85904H100.733V0.150879H104.744C105.594 0.150879 106.26 0.347009 106.741 0.739268C106.977 0.927251 107.165 1.16879 107.291 1.44418C107.417 1.71958 107.476 2.02104 107.464 2.324C107.471 2.78929 107.299 3.23914 106.984 3.57923C106.671 3.92883 106.243 4.15355 105.78 4.21273V4.2598C106.335 4.27788 106.864 4.50773 107.258 4.9031C107.453 5.09016 107.607 5.31589 107.711 5.56603C107.814 5.81618 107.865 6.08531 107.861 6.35642C107.874 6.70408 107.807 7.05013 107.666 7.36733C107.524 7.68452 107.312 7.96421 107.045 8.18435C106.493 8.62957 105.768 8.85904 104.847 8.85904H104.853ZM102.927 1.71992V3.69887H104.058C104.391 3.71924 104.72 3.62445 104.992 3.43017C105.102 3.34264 105.19 3.2299 105.248 3.1013C105.306 2.9727 105.333 2.83195 105.327 2.69076C105.334 2.55572 105.309 2.4209 105.256 2.29699C105.202 2.17307 105.121 2.06346 105.018 1.97685C104.771 1.79211 104.467 1.70113 104.161 1.71992H102.927ZM102.927 7.29H104.231C104.601 7.31465 104.969 7.21162 105.274 6.99777C105.396 6.89584 105.491 6.76661 105.554 6.62048C105.617 6.47434 105.645 6.31538 105.636 6.15637C105.644 5.9994 105.614 5.8428 105.549 5.69979C105.485 5.55677 105.387 5.43152 105.265 5.33459C104.957 5.12393 104.59 5.02186 104.219 5.04431H102.927V7.29Z" fill="#E00822"/>
<path d="M110.573 8.85918H108.492V0.15102H110.241L113.9 5.21509H113.947V0.15102H116.028V8.85918H114.295L110.622 3.74804H110.573V8.85918ZM122.717 8.85918L122.173 6.94691H119.351L118.799 8.85918H116.565L119.464 0.15102H122.15L125.049 8.85918H122.717ZM120.737 1.99464L119.775 5.35042H121.742L120.786 1.99464H120.737ZM127.5 0.15102V5.53478C127.47 5.96764 127.609 6.395 127.888 6.72529C128.2 6.99968 128.6 7.15085 129.013 7.15085C129.427 7.15085 129.827 6.99968 130.139 6.72529C130.417 6.39459 130.556 5.96753 130.527 5.53478V0.15102H132.721V5.77014C132.738 6.2143 132.655 6.65655 132.479 7.06402C132.303 7.47148 132.039 7.83368 131.705 8.12369C131.039 8.7147 130.149 9.0102 129.035 9.0102C127.921 9.0102 127.014 8.7147 126.314 8.12369C125.98 7.83368 125.716 7.47148 125.54 7.06402C125.364 6.65655 125.281 6.2143 125.298 5.77014V0.15102H127.5ZM137.939 8.85918H135.751V1.93776H133.37V0.15102H140.32V1.93776H137.939V8.85918ZM140.677 6.33695H142.764C142.786 6.48856 142.842 6.633 142.929 6.75867C143.016 6.88435 143.13 6.98778 143.264 7.06067C143.582 7.25327 143.948 7.34991 144.319 7.33917C144.677 7.35542 145.032 7.26615 145.341 7.08224C145.457 7.01713 145.554 6.92231 145.622 6.80731C145.691 6.69231 145.728 6.5612 145.73 6.42717C145.733 6.31465 145.707 6.20327 145.654 6.10415C145.601 6.00503 145.523 5.92164 145.429 5.86232C145.104 5.68064 144.752 5.55533 144.387 5.49163L143.256 5.26804C142.463 5.11506 141.863 4.82675 141.456 4.40311C141.252 4.18532 141.093 3.92868 140.988 3.64818C140.884 3.36768 140.835 3.06892 140.846 2.76935C140.835 2.38063 140.917 1.99488 141.084 1.64443C141.251 1.29398 141.498 0.989023 141.806 0.755099C142.445 0.2517 143.268 0 144.276 0C145.345 0 146.187 0.242547 146.802 0.727641C147.1 0.957571 147.34 1.25488 147.502 1.59558C147.665 1.93627 147.746 2.3108 147.739 2.68894H145.718C145.712 2.54058 145.67 2.39592 145.597 2.26698C145.524 2.13804 145.422 2.02854 145.298 1.94757C145.003 1.75571 144.656 1.66051 144.305 1.67495C143.981 1.66037 143.659 1.7444 143.382 1.91619C143.274 1.98368 143.185 2.07817 143.124 2.19053C143.063 2.30288 143.031 2.42929 143.032 2.55753C143.031 2.66949 143.058 2.77996 143.111 2.87848C143.163 2.97699 143.24 3.06027 143.334 3.12042C143.636 3.30128 143.971 3.42117 144.319 3.47346L145.436 3.68528C146.285 3.85003 146.909 4.13376 147.308 4.53648C147.512 4.75392 147.671 5.01106 147.774 5.29226C147.876 5.57346 147.922 5.87284 147.906 6.1722C147.918 6.57177 147.834 6.96829 147.661 7.32793C147.488 7.68756 147.232 7.99962 146.913 8.23745C146.256 8.74869 145.372 9.00497 144.259 9.00628C143.146 9.00758 142.276 8.77223 141.649 8.30021C141.341 8.07725 141.092 7.78195 140.922 7.43987C140.753 7.0978 140.669 6.71924 140.677 6.33695Z" fill="#F8F8F8"/>
</svg>
