<svg width="96" height="39" viewBox="0 0 96 39" fill="none" xmlns="http://www.w3.org/2000/svg">
<path d="M56.5233 12.7089L54.959 7.8479H43.792L42.9374 10.4957C45.166 12.4399 46.4568 15.3746 46.4568 19.0104C46.4568 25.0774 42.5731 29.2092 36.6499 29.9741C36.6499 29.9741 34.2738 30.2635 30.2578 29.8759V38.4658H42.9739L44.5471 32.381H53.7791L55.3535 38.4709H64.8377L56.5233 12.7089ZM46.1631 26.0348L49.0799 14.9156H49.2476L52.1644 26.0361L46.1631 26.0348Z" fill="#212121"/>
<path d="M32.7551 23.4661H30.2529V14.6174H32.813C35.7122 14.6174 37.477 16.1243 37.477 19.0322C37.477 21.9605 35.7135 23.4661 32.7551 23.4661Z" fill="#212121"/>
<path d="M26.2692 28.6838C26.2692 32.4458 24.5348 35.3907 21.362 37.1538C19.2192 38.3445 16.4183 38.9972 13.0502 38.9972C5.20343 38.9998 0.0201683 35.4557 0 29.1937H8.18204C8.5186 31.0397 10.6375 32.1003 13.1548 32.1003C15.8208 32.1003 17.4569 30.9976 17.4569 29.4907C17.4569 28.0476 16.2821 27.4319 12.8825 26.8136L9.83962 26.2616C3.81812 25.1792 0.524376 22.1018 0.524376 17.3491C0.524376 11.1942 5.7694 7.31104 12.967 7.31104C16.4498 7.31104 19.2696 8.01347 21.362 9.29596C24.1352 10.9941 25.6163 13.7107 25.6402 17.1579H17.4569C17.3952 15.2979 15.5044 14.2143 13.0716 14.2143C10.5959 14.2143 9.33667 15.3183 9.33667 16.6977C9.33667 18.0771 10.6375 18.7374 13.659 19.2856L16.7019 19.8376C18.5221 20.1704 20.0725 20.6204 21.3658 21.2055C24.681 22.7111 26.2692 25.1142 26.2692 28.6838Z" fill="#212121"/>
<path d="M83.5363 14.9998V19.9436H95.2238V26.3956H83.5363V31.3178H96.0003V38.4696H74.6395V37.8985C79.4988 35.9862 82.6388 31.6862 82.669 26.119H74.1504C73.8769 29.663 71.6533 31.9335 68.5903 31.9335C64.8969 31.9335 62.6104 28.6661 62.6104 23.1269C62.6104 17.6527 64.9184 14.384 68.5688 14.384C71.6533 14.384 73.8983 16.6979 74.1088 20.1769H82.6274C82.6123 14.6709 79.4333 10.3899 74.6395 8.44835V7.8479H96.0003V14.9998H83.5363Z" fill="#212121"/>
<path d="M56.723 2.22458L55.7801 5.75845H54.4339L52.9717 0.0981445H54.4415L55.1978 3.92267H55.2293L56.1646 0.0981445H57.2991L58.2344 3.92267H58.2646L59.0209 0.0981445H60.492L59.0285 5.75845H57.6923L56.7495 2.22458H56.723ZM64.7273 4.59707V5.75845H60.8827V0.0981445H64.7185V1.25953H62.3109V2.38521H64.5798V3.44206H62.3109V4.58942L64.7273 4.59707ZM68.0122 5.75845H65.3399V0.0981445H67.9417C68.4929 0.0981445 68.9249 0.225629 69.2375 0.480597C69.3904 0.602786 69.5125 0.759785 69.594 0.938793C69.6755 1.1178 69.714 1.31375 69.7064 1.51067C69.7108 1.81311 69.5992 2.10551 69.395 2.32657C69.1915 2.55381 68.9143 2.69988 68.6135 2.73834V2.76894C68.974 2.78069 69.3168 2.9301 69.5728 3.18709C69.6989 3.30868 69.7988 3.4554 69.8661 3.618C69.9333 3.78059 69.9665 3.95552 69.9635 4.13175C69.9722 4.35772 69.929 4.58266 69.8371 4.78884C69.7452 4.99501 69.6073 5.17681 69.4341 5.3199C69.0761 5.60929 68.606 5.75845 68.0085 5.75845H68.0122ZM66.7631 1.11802V2.40434H67.4967C67.7126 2.41758 67.9264 2.35597 68.103 2.22968C68.1743 2.17279 68.2312 2.09951 68.2689 2.01592C68.3066 1.93233 68.3241 1.84084 68.3198 1.74907C68.3243 1.66129 68.3086 1.57366 68.2738 1.49311C68.239 1.41257 68.1861 1.34132 68.1194 1.28502C67.9593 1.16494 67.7625 1.10581 67.5635 1.11802H66.7631ZM66.7631 4.73857H67.6089C67.8493 4.75459 68.0879 4.68762 68.2858 4.54862C68.3644 4.48237 68.4266 4.39837 68.4674 4.30338C68.5081 4.2084 68.5262 4.10507 68.5202 4.00171C68.5254 3.89968 68.5062 3.7979 68.4643 3.70494C68.4224 3.61197 68.359 3.53056 68.2795 3.46755C68.0802 3.33063 67.8418 3.26428 67.6013 3.27888H66.7631V4.73857Z" fill="#E00822"/>
<path d="M71.724 5.75847H70.374V0.0981629H71.5085L73.8821 3.38981H73.9123V0.0981629H75.2623V5.75847H74.1379L71.7556 2.43623H71.724V5.75847ZM79.601 5.75847L79.2481 4.51549H77.4178L77.0598 5.75847H75.6102L77.4909 0.0981629H79.233L81.1136 5.75847H79.601ZM78.3166 1.29652L77.6926 3.47777H78.9682L78.3481 1.29652H78.3166ZM82.7032 0.0981629V3.59761C82.6839 3.87897 82.7744 4.15675 82.9553 4.37144C83.1575 4.54979 83.4168 4.64806 83.6851 4.64806C83.9534 4.64806 84.2127 4.54979 84.415 4.37144C84.5953 4.15648 84.6858 3.8789 84.6671 3.59761V0.0981629H86.0902V3.75059C86.101 4.03929 86.0474 4.32676 85.9332 4.59161C85.8191 4.85646 85.6474 5.09189 85.4309 5.2804C84.999 5.66455 84.4217 5.85663 83.699 5.85663C82.9763 5.85663 82.388 5.66455 81.9342 5.2804C81.7178 5.09189 81.5461 4.85646 81.4319 4.59161C81.3178 4.32676 81.2642 4.03929 81.275 3.75059V0.0981629H82.7032ZM89.4747 5.75847H88.0553V1.25954H86.5112V0.0981629H91.0188V1.25954H89.4747V5.75847ZM91.2507 4.11902H92.6045C92.6185 4.21757 92.655 4.31145 92.7113 4.39314C92.7675 4.47483 92.8419 4.54206 92.9285 4.58944C93.1349 4.71462 93.3724 4.77744 93.613 4.77046C93.8453 4.78103 94.0757 4.723 94.276 4.60346C94.3513 4.56114 94.4142 4.4995 94.4585 4.42475C94.5028 4.35 94.5268 4.26478 94.5281 4.17766C94.5301 4.10452 94.5132 4.03213 94.4789 3.9677C94.4446 3.90327 94.3942 3.84907 94.3327 3.81051C94.1225 3.69242 93.8941 3.61096 93.6571 3.56956L92.9235 3.42423C92.4092 3.32479 92.0201 3.13739 91.7562 2.86202C91.6238 2.72046 91.5206 2.55365 91.4527 2.37132C91.3847 2.18899 91.3534 1.9948 91.3604 1.80008C91.3532 1.54741 91.406 1.29667 91.5144 1.06888C91.6227 0.841088 91.7834 0.642865 91.9831 0.490815C92.3974 0.163605 92.9314 0 93.5852 0C94.2785 0 94.8247 0.157656 95.2239 0.472967C95.4169 0.622421 95.5724 0.815673 95.678 1.03712C95.7835 1.25858 95.8361 1.50202 95.8315 1.74781H94.5205C94.5163 1.65138 94.4894 1.55735 94.4421 1.47354C94.3947 1.38973 94.3283 1.31855 94.2483 1.26592C94.0567 1.14121 93.8318 1.07933 93.6041 1.08872C93.3935 1.07924 93.185 1.13386 93.0054 1.24552C92.9353 1.28939 92.8776 1.35081 92.8378 1.42384C92.7981 1.49687 92.7777 1.57904 92.7785 1.6624C92.7775 1.73517 92.795 1.80697 92.8292 1.87101C92.8634 1.93504 92.9132 1.98918 92.9739 2.02828C93.1702 2.14583 93.3873 2.22376 93.613 2.25775L94.3378 2.39543C94.8882 2.50252 95.2928 2.68694 95.5516 2.94871C95.6843 3.09005 95.7871 3.25719 95.8538 3.43997C95.9205 3.62275 95.9498 3.81735 95.9399 4.01193C95.9476 4.27165 95.893 4.52939 95.7809 4.76315C95.6687 4.99692 95.5023 5.19975 95.2958 5.35434C94.8697 5.68665 94.2957 5.85323 93.5739 5.85408C92.852 5.85493 92.2877 5.70195 91.881 5.39514C91.6814 5.25021 91.5196 5.05827 91.4098 4.83592C91.3 4.61357 91.2454 4.36751 91.2507 4.11902Z" fill="#212121"/>
</svg>
