<svg width="315" height="79" viewBox="0 0 315 79" fill="none" xmlns="http://www.w3.org/2000/svg">
<path fill-rule="evenodd" clip-rule="evenodd" d="M315 2C315 0.895431 314.105 0 313 0H2C0.895431 0 0 0.89543 0 2V63C0 64.1046 0.895429 65 2 65H145.14C145.728 65 146.286 65.2588 146.666 65.7075L156.479 77.2952C157.278 78.2385 158.733 78.2385 159.532 77.2952L169.345 65.7075C169.725 65.2588 170.283 65 170.871 65H313C314.105 65 315 64.1046 315 63V2Z" fill="white"/>
<path d="M20.93 18.85H23.72L27.86 39.19H28.64L32.63 18.85H38.69L42.68 39.19H43.46L47.6 18.85H50.39L46.07 40H40.07L36.05 19.66H35.27L31.25 40H25.25L20.93 18.85ZM52.8624 40V18.85H66.3324V21.37H55.7724V28.15H64.8324V30.67H55.7724V37.48H66.3324V40H52.8624ZM69.7081 40V18.85H75.6481C78.4881 18.85 80.5681 19.22 81.8881 19.96C83.2281 20.7 83.8981 22.06 83.8981 24.04C83.8981 26.76 82.4381 28.24 79.5181 28.48V29.26C83.4781 29.38 85.4581 31.09 85.4581 34.39C85.4581 36.45 84.7181 37.9 83.2381 38.74C81.7581 39.58 79.6181 40 76.8181 40H69.7081ZM72.6181 27.73H75.8581C77.6381 27.73 78.9381 27.53 79.7581 27.13C80.5781 26.71 80.9881 25.85 80.9881 24.55C80.9881 23.97 80.8981 23.48 80.7181 23.08C80.5581 22.68 80.3481 22.37 80.0881 22.15C79.8481 21.91 79.4881 21.74 79.0081 21.64C78.5281 21.52 78.0681 21.45 77.6281 21.43C77.1881 21.39 76.5981 21.37 75.8581 21.37H72.6181V27.73ZM72.6181 37.48H77.0281C78.9481 37.48 80.3481 37.25 81.2281 36.79C82.1081 36.31 82.5481 35.34 82.5481 33.88C82.5481 32.5 82.0881 31.55 81.1681 31.03C80.2681 30.51 78.8881 30.25 77.0281 30.25H72.6181V37.48Z" fill="#E00822"/>
<path d="M89.4249 40V18.85H95.2749L104.965 39.19H105.775L105.265 37.21V18.85H108.205V40H102.355L92.6349 19.66H91.8249L92.3349 21.64V40H89.4249ZM127.37 40L124.88 32.02H116.33L113.84 40H110.93L117.59 18.85H123.62L130.28 40H127.37ZM117.11 29.5H124.1L121.01 19.66H120.2L117.11 29.5ZM131.833 32.14V18.85H134.743V31.42C134.743 33.62 135.153 35.23 135.973 36.25C136.813 37.27 138.293 37.78 140.413 37.78C142.533 37.78 144.013 37.27 144.853 36.25C145.713 35.21 146.143 33.6 146.143 31.42V18.85H149.053V32.14C149.053 37.58 146.173 40.3 140.413 40.3C134.693 40.3 131.833 37.58 131.833 32.14ZM169.236 18.85V21.37H161.976V40H159.066V21.37H151.806V18.85H169.236ZM187.912 34.57C187.912 38.39 185.142 40.3 179.602 40.3C176.082 40.3 173.582 39.6 172.102 38.2C170.622 36.78 169.882 34.73 169.882 32.05H172.792C172.792 34.25 173.342 35.76 174.442 36.58C175.562 37.38 177.302 37.78 179.662 37.78C181.462 37.78 182.802 37.54 183.682 37.06C184.562 36.58 185.002 35.79 185.002 34.69C185.002 34.29 184.942 33.93 184.822 33.61C184.722 33.27 184.512 32.97 184.192 32.71C183.892 32.43 183.622 32.2 183.382 32.02C183.162 31.84 182.772 31.65 182.212 31.45C181.672 31.23 181.272 31.08 181.012 31C180.772 30.9 180.292 30.75 179.572 30.55C178.872 30.33 178.412 30.19 178.192 30.13C177.192 29.83 176.382 29.57 175.762 29.35C175.162 29.13 174.512 28.84 173.812 28.48C173.112 28.12 172.572 27.74 172.192 27.34C171.812 26.94 171.492 26.45 171.232 25.87C170.972 25.27 170.842 24.6 170.842 23.86C170.842 20.32 173.392 18.55 178.492 18.55C181.392 18.55 183.542 19.26 184.942 20.68C186.342 22.1 187.042 23.82 187.042 25.84H184.132C184.132 24.24 183.602 23.05 182.542 22.27C181.502 21.47 180.152 21.07 178.492 21.07C175.332 21.07 173.752 21.99 173.752 23.83C173.752 24.75 174.112 25.46 174.832 25.96C175.572 26.44 176.892 26.99 178.792 27.61C181.512 28.47 183.302 29.11 184.162 29.53C186.662 30.77 187.912 32.45 187.912 34.57ZM195.475 39.52C194.975 40.04 194.345 40.3 193.585 40.3C192.825 40.3 192.195 40.05 191.695 39.55C191.215 39.03 190.975 38.39 190.975 37.63C190.975 36.89 191.215 36.27 191.695 35.77C192.195 35.25 192.825 34.99 193.585 34.99C194.325 34.99 194.955 35.25 195.475 35.77C195.995 36.27 196.255 36.89 196.255 37.63C196.255 38.37 195.995 39 195.475 39.52ZM217.942 34.57C217.942 38.39 215.172 40.3 209.632 40.3C206.112 40.3 203.612 39.6 202.132 38.2C200.652 36.78 199.912 34.73 199.912 32.05H202.822C202.822 34.25 203.372 35.76 204.472 36.58C205.592 37.38 207.332 37.78 209.692 37.78C211.492 37.78 212.832 37.54 213.712 37.06C214.592 36.58 215.032 35.79 215.032 34.69C215.032 34.29 214.972 33.93 214.852 33.61C214.752 33.27 214.542 32.97 214.222 32.71C213.922 32.43 213.652 32.2 213.412 32.02C213.192 31.84 212.802 31.65 212.242 31.45C211.702 31.23 211.302 31.08 211.042 31C210.802 30.9 210.322 30.75 209.602 30.55C208.902 30.33 208.442 30.19 208.222 30.13C207.222 29.83 206.412 29.57 205.792 29.35C205.192 29.13 204.542 28.84 203.842 28.48C203.142 28.12 202.602 27.74 202.222 27.34C201.842 26.94 201.522 26.45 201.262 25.87C201.002 25.27 200.872 24.6 200.872 23.86C200.872 20.32 203.422 18.55 208.522 18.55C211.422 18.55 213.572 19.26 214.972 20.68C216.372 22.1 217.072 23.82 217.072 25.84H214.162C214.162 24.24 213.632 23.05 212.572 22.27C211.532 21.47 210.182 21.07 208.522 21.07C205.362 21.07 203.782 21.99 203.782 23.83C203.782 24.75 204.142 25.46 204.862 25.96C205.602 26.44 206.922 26.99 208.822 27.61C211.542 28.47 213.332 29.11 214.192 29.53C216.692 30.77 217.942 32.45 217.942 34.57ZM227.442 18.85C228.862 18.85 230.082 18.95 231.102 19.15C232.122 19.35 233.042 19.71 233.862 20.23C234.682 20.73 235.292 21.45 235.692 22.39C236.112 23.33 236.322 24.49 236.322 25.87C236.322 27.25 236.112 28.41 235.692 29.35C235.292 30.29 234.682 31.02 233.862 31.54C233.042 32.04 232.122 32.39 231.102 32.59C230.082 32.79 228.862 32.89 227.442 32.89H224.112V40H221.202V18.85H227.442ZM227.532 30.37C228.492 30.37 229.292 30.32 229.932 30.22C230.572 30.1 231.172 29.89 231.732 29.59C232.312 29.29 232.732 28.84 232.992 28.24C233.272 27.62 233.412 26.83 233.412 25.87C233.412 24.91 233.272 24.13 232.992 23.53C232.732 22.91 232.312 22.45 231.732 22.15C231.172 21.85 230.572 21.65 229.932 21.55C229.292 21.43 228.492 21.37 227.532 21.37H224.112V30.37H227.532ZM252.526 40L250.036 32.02H241.486L238.996 40H236.086L242.746 18.85H248.776L255.436 40H252.526ZM242.266 29.5H249.256L246.166 19.66H245.356L242.266 29.5ZM256.41 29.41C256.41 26.25 257.31 23.65 259.11 21.61C260.93 19.57 263.39 18.55 266.49 18.55C269.23 18.55 271.45 19.31 273.15 20.83C274.87 22.33 275.89 24.39 276.21 27.01H273.3C273.06 25.11 272.35 23.65 271.17 22.63C269.99 21.59 268.43 21.07 266.49 21.07C264.21 21.07 262.44 21.83 261.18 23.35C259.94 24.85 259.32 26.87 259.32 29.41C259.32 31.95 259.94 33.98 261.18 35.5C262.42 37.02 264.19 37.78 266.49 37.78C268.43 37.78 269.99 37.26 271.17 36.22C272.35 35.18 273.06 33.71 273.3 31.81H276.21C275.89 34.45 274.87 36.53 273.15 38.05C271.45 39.55 269.23 40.3 266.49 40.3C263.39 40.3 260.93 39.28 259.11 37.24C257.31 35.2 256.41 32.59 256.41 29.41ZM279.591 40V18.85H293.061V21.37H282.501V28.15H291.561V30.67H282.501V37.48H293.061V40H279.591Z" fill="#212121"/>
</svg>
