<svg width="13" height="13" viewBox="0 0 13 13" fill="none" xmlns="http://www.w3.org/2000/svg">
<path d="M1.68309 7.45951C2.64121 6.08033 3.2048 5.19179 3.61571 4.53516C2.03658 4.67482 0.522949 6.63975 0.522949 6.63975L1.56526 7.68202C1.59551 7.60495 1.63412 7.53011 1.68309 7.45951Z" fill="#212121"/>
<path d="M5.75293 11.8696L6.79455 12.9112C6.79455 12.9112 8.7594 11.3977 8.89911 9.8186C8.24268 10.2293 7.35442 10.7927 5.9748 11.7511C5.90501 11.7995 5.83061 11.8391 5.75293 11.8696Z" fill="#212121"/>
<path d="M4.16885 11.3309C3.99005 11.4031 3.81431 11.4799 3.6311 11.5411C3.14175 11.7047 2.63776 11.8152 2.12677 11.8857C1.91259 11.9153 1.69642 11.9404 1.47988 11.9568C1.48195 11.9301 1.48393 11.9033 1.48619 11.8766C1.53087 11.356 1.61009 10.838 1.73807 10.331C1.79973 10.0864 1.87842 9.84851 1.96289 9.61099C2.01541 9.46332 2.08096 9.322 2.14707 9.18068L2.03248 9.06616C1.77761 9.23737 1.55594 9.4537 1.36784 9.69845C1.08936 10.0609 0.880627 10.4715 0.734695 10.9041C0.577926 11.3687 0.484439 11.8607 0.469882 12.3512C0.46782 12.4201 0.463089 12.4905 0.473764 12.5589C0.487512 12.6472 0.52629 12.7308 0.584557 12.7985C0.642219 12.8655 0.718116 12.9161 0.802222 12.9432C0.872823 12.966 0.943828 12.9664 1.01706 12.9658C1.46233 12.9621 1.91453 12.8847 2.34076 12.7581C3.12032 12.5265 3.90732 12.0907 4.36861 11.4022L4.25708 11.2908C4.22785 11.3045 4.19853 11.318 4.16885 11.3309Z" fill="#212121"/>
<path d="M12.8404 0.594133C12.8404 0.594133 12.8404 0.594093 12.8403 0.594012C12.7592 0.512939 12.6492 0.467529 12.5348 0.467529C12.532 0.467529 12.5291 0.46757 12.5263 0.46761C11.1349 0.494904 7.702 0.755148 5.87892 2.57831C5.05132 3.40591 4.78234 3.83671 4.19279 4.7808C3.76822 5.46053 3.18695 6.39156 2.12463 7.92059C2.0053 8.09244 2.02605 8.32507 2.174 8.47294L4.96115 11.2601C5.04477 11.3438 5.15552 11.3868 5.26701 11.3868C5.35269 11.3868 5.43878 11.3614 5.5135 11.3095C7.0431 10.247 7.97377 9.66584 8.65325 9.24142C9.59726 8.65191 10.0281 8.38285 10.8559 7.55517C12.6822 5.72878 12.9406 2.29817 12.9668 0.907955C12.9692 0.79057 12.9235 0.677269 12.8404 0.594133ZM9.61299 5.85308C9.05186 6.41416 8.14222 6.41416 7.5811 5.85308C7.01989 5.29195 7.01997 4.38235 7.58118 3.82126C8.14222 3.26014 9.05186 3.26006 9.61299 3.82114C10.174 4.38223 10.174 5.29203 9.61299 5.85308Z" fill="#212121"/>
</svg>
