<svg width="277" height="46" fill="none" xmlns="http://www.w3.org/2000/svg"><circle cx="23" cy="23" r="22.5" fill="#fff" stroke="#212121"/><g clip-path="url(#clip0)" fill="#212121"><path d="M14.137 24.765a124.64 124.64 0 003.556-5.38c-2.906.257-5.691 3.872-5.691 3.872l1.918 1.918c.056-.142.127-.28.217-.41zm7.488 8.115l1.917 1.916s3.615-2.784 3.872-5.69a124.765 124.765 0 00-5.38 3.556c-.13.089-.266.162-.409.218zm-2.915-.991c-.328.133-.652.274-.989.387-.9.3-1.828.504-2.768.634-.394.054-.791.1-1.19.13l.012-.147a17.9 17.9 0 01.463-2.844c.114-.45.258-.888.414-1.325a8.75 8.75 0 01.339-.791l-.211-.211a5.231 5.231 0 00-1.223 1.163 7.633 7.633 0 00-1.165 2.219 9.231 9.231 0 00-.487 2.662c-.004.127-.013.257.007.382a.89.89 0 00.604.708c.13.041.26.042.395.041a8.89 8.89 0 002.436-.382c1.434-.426 2.883-1.228 3.731-2.495l-.205-.205-.162.074zm15.957-19.756a.795.795 0 00-.578-.233c-2.56.05-8.877.53-12.231 3.884-1.523 1.523-2.018 2.315-3.103 4.053-.781 1.25-1.85 2.963-3.805 5.777a.795.795 0 00.09 1.016l5.129 5.129a.794.794 0 001.016.09c2.815-1.955 4.527-3.024 5.777-3.805 1.737-1.085 2.53-1.58 4.053-3.103 3.36-3.36 3.836-9.672 3.885-12.23a.796.796 0 00-.233-.578zm-5.939 9.677a2.644 2.644 0 11-3.738-3.74 2.644 2.644 0 013.738 3.74z"/></g><circle cx="254" cy="23" r="22.5" fill="#fff" stroke="#212121"/><path d="M255 8l.041.376A16.456 16.456 0 00270 23a16.979 16.979 0 00-15 15 16.88 16.88 0 00-15-15 16.46 16.46 0 0014.954-14.584L255 8z" fill="#212121"/><rect x="46.5" y=".5" width="184" height="45" rx="22.5" fill="#fff" stroke="#212121"/><path d="M72.22 21.94c0-2.107.6-3.84 1.8-5.2 1.213-1.36 2.853-2.04 4.92-2.04 1.827 0 3.307.507 4.44 1.52 1.147 1 1.827 2.373 2.04 4.12h-1.94c-.16-1.267-.633-2.24-1.42-2.92-.787-.693-1.827-1.04-3.12-1.04-1.52 0-2.7.507-3.54 1.52-.827 1-1.24 2.347-1.24 4.04s.413 3.047 1.24 4.06c.827 1.013 2.007 1.52 3.54 1.52 1.293 0 2.333-.347 3.12-1.04.787-.693 1.26-1.673 1.42-2.94h1.94c-.213 1.76-.893 3.147-2.04 4.16-1.133 1-2.613 1.5-4.44 1.5-2.067 0-3.707-.68-4.92-2.04-1.2-1.36-1.8-3.1-1.8-5.22zm15.176 0c0-2.107.6-3.84 1.8-5.2 1.2-1.36 2.833-2.04 4.9-2.04 2.053 0 3.68.68 4.88 2.04 1.2 1.36 1.8 3.093 1.8 5.2 0 2.12-.6 3.86-1.8 5.22-1.2 1.36-2.827 2.04-4.88 2.04-2.067 0-3.7-.68-4.9-2.04-1.2-1.36-1.8-3.1-1.8-5.22zm1.94 0c0 1.693.406 3.047 1.22 4.06.813 1.013 1.993 1.52 3.54 1.52 1.546 0 2.72-.507 3.52-1.52.813-1.013 1.22-2.367 1.22-4.06 0-1.68-.407-3.027-1.22-4.04-.8-1.013-1.974-1.52-3.52-1.52-1.547 0-2.727.507-3.54 1.52-.814 1.013-1.22 2.36-1.22 4.04zm12.479-7.04h1.86l2.76 13.56h.52l2.66-13.56h4.04l2.66 13.56h.52l2.76-13.56h1.86l-2.88 14.1h-4l-2.68-13.56h-.52L108.695 29h-4l-2.88-14.1zm20.62 7.04c0-2.107.6-3.84 1.8-5.2 1.2-1.36 2.833-2.04 4.9-2.04 2.053 0 3.68.68 4.88 2.04 1.2 1.36 1.8 3.093 1.8 5.2 0 2.12-.6 3.86-1.8 5.22-1.2 1.36-2.827 2.04-4.88 2.04-2.067 0-3.7-.68-4.9-2.04-1.2-1.36-1.8-3.1-1.8-5.22zm1.94 0c0 1.693.407 3.047 1.22 4.06.813 1.013 1.993 1.52 3.54 1.52s2.72-.507 3.52-1.52c.813-1.013 1.22-2.367 1.22-4.06 0-1.68-.407-3.027-1.22-4.04-.8-1.013-1.973-1.52-3.52-1.52s-2.727.507-3.54 1.52c-.813 1.013-1.22 2.36-1.22 4.04zm13.69 7.06V14.9h4.82c1.84 0 3.24.287 4.2.86.973.573 1.46 1.6 1.46 3.08 0 1.893-.94 2.993-2.82 3.3v.52h1.76c.826 0 1.24.4 1.24 1.2V29h-1.94v-5.52h-6.78V29h-1.94zm1.94-7.2h2.88c.533 0 .96-.013 1.28-.04a5.276 5.276 0 001-.18c.346-.093.613-.233.8-.42.186-.187.34-.44.46-.76.12-.333.18-.74.18-1.22s-.06-.88-.18-1.2a2.11 2.11 0 00-.46-.76c-.187-.187-.454-.327-.8-.42a5.276 5.276 0 00-1-.18 16.15 16.15 0 00-1.28-.04h-2.88v5.22zm23.082-6.9l-8.58 7.04 8.58 7.06h-2.84l-7-5.78V29h-1.94V14.9h1.94v5.78l7-5.78h2.84zm10.03 1.68h-3.16v10.74h3.16V29h-8.26v-1.68h3.16V16.58h-3.16V14.9h8.26v1.68zM175.506 29V14.9h3.9l6.46 13.56h.54l-.34-1.32V14.9h1.96V29h-3.9l-6.48-13.56h-.54l.34 1.32V29h-1.94zm14.663-7.06c0-2.107.62-3.84 1.86-5.2 1.24-1.36 2.867-2.04 4.88-2.04 1.72 0 3.107.48 4.16 1.44 1.054.947 1.687 2.213 1.9 3.8h-1.94c-.346-2.373-1.72-3.56-4.12-3.56-1.546 0-2.733.5-3.56 1.5-.826.987-1.24 2.34-1.24 4.06 0 3.72 1.447 5.58 4.34 5.58 2.614 0 3.9-1.52 3.86-4.56h-4.52V21.4h7.04c.867 0 1.3.407 1.3 1.22V29h-1.94v-5.18l.32-1.88h-.52c-.026 4.84-1.886 7.26-5.58 7.26-2.013 0-3.56-.667-4.64-2-1.066-1.333-1.6-3.087-1.6-5.26z" fill="#212121"/><defs><clipPath id="clip0"><path fill="#fff" transform="translate(11.9 11.899)" d="M0 0h23v23H0z"/></clipPath></defs></svg>