<svg width="190" height="50" fill="none" xmlns="http://www.w3.org/2000/svg"><rect x=".5" y=".5" width="139" height="49" rx="24.5" fill="#fff" stroke="#212121"/><path d="M33.02 15.9c.773 0 1.473.047 2.1.14a6.92 6.92 0 011.92.6 4.63 4.63 0 011.66 1.2c.44.493.8 1.173 1.08 2.04.293.867.44 1.887.44 3.06s-.147 2.193-.44 3.06c-.28.867-.64 1.553-1.08 2.06-.44.493-.993.893-1.66 1.2a6.92 6.92 0 01-1.92.6 14.34 14.34 0 01-2.1.14h-4.6V15.9h4.6zm0 12.42c.6 0 1.107-.02 1.52-.06.427-.053.887-.18 1.38-.38a3.1 3.1 0 001.22-.88c.32-.373.587-.9.8-1.58.213-.693.32-1.52.32-2.48s-.107-1.78-.32-2.46c-.213-.693-.48-1.22-.8-1.58-.307-.373-.713-.66-1.22-.86-.493-.213-.953-.34-1.38-.38-.413-.053-.92-.08-1.52-.08h-2.66v10.74h2.66zm16.41-10.74h-3.16v10.74h3.16V30h-8.26v-1.68h3.16V17.58h-3.16V15.9h8.26v1.68zm.9 5.36c0-2.107.62-3.84 1.86-5.2 1.24-1.36 2.866-2.04 4.88-2.04 1.72 0 3.106.48 4.16 1.44 1.053.947 1.686 2.213 1.9 3.8h-1.94c-.347-2.373-1.72-3.56-4.12-3.56-1.547 0-2.734.5-3.56 1.5-.827.987-1.24 2.34-1.24 4.06 0 3.72 1.446 5.58 4.34 5.58 2.613 0 3.9-1.52 3.86-4.56h-4.52V22.4h7.04c.866 0 1.3.407 1.3 1.22V30h-1.94v-5.18l.32-1.88h-.52c-.027 4.84-1.887 7.26-5.58 7.26-2.014 0-3.56-.667-4.64-2-1.067-1.333-1.6-3.087-1.6-5.26zm24.255-5.36h-3.16v10.74h3.16V30h-8.26v-1.68h3.16V17.58h-3.16V15.9h8.26v1.68zM88.25 15.9v1.68h-4.84V30h-1.94V17.58h-4.84V15.9h11.62zM98.092 30l-1.66-5.32h-5.7L89.072 30h-1.94l4.44-14.1h4.02l4.44 14.1h-1.94zm-6.84-7h4.66l-2.06-6.56h-.54L91.252 23zm11.925 7.2c-.413.013-.733-.093-.96-.32-.227-.227-.34-.553-.34-.98v-13h1.94v12.62l7.04-.2V30l-7.68.2z" fill="#212121"/><circle cx="165" cy="25" r="24.5" fill="#fff" stroke="#212121"/><path d="M155.962 34.23l17.885-17.307m-16.693-1.153h17.885v17.307" stroke="#212121" stroke-width="2" stroke-linecap="square" stroke-linejoin="round"/></svg>