<svg width="17" height="23" fill="none" xmlns="http://www.w3.org/2000/svg"><path d="M8.85 22.3c-2.44 0-4.27-.54-5.49-1.62-1.2-1.08-1.8-2.57-1.8-4.47 0-.6.07-1.14.21-1.62H.3v-2.22h2.61c.36-.42.79-.81 1.29-1.17.5-.36 1.06-.69 1.68-.99H.3V7.99h10.02c.52-.48.78-1.11.78-1.89 0-.64-.24-1.14-.72-1.5-.46-.36-1.13-.54-2.01-.54-.8 0-1.61.11-2.43.33-.8.22-1.7.53-2.7.93L1.89 1.78C2.93 1.32 4.01.96 5.13.7 6.27.42 7.47.28 8.73.28c2.08 0 3.73.51 4.95 1.53 1.24 1 1.86 2.46 1.86 4.38 0 .62-.08 1.22-.24 1.8h1.53v2.22h-2.79c-.44.5-.96.92-1.56 1.26-.6.32-1.22.62-1.86.9h6.21v2.22H6.57c-.38.44-.57.98-.57 1.62 0 .74.26 1.32.78 1.74.52.4 1.3.6 2.34.6 1.08 0 2.14-.12 3.18-.36 1.04-.26 2.08-.6 3.12-1.02v3.78c-.86.42-1.85.75-2.97.99s-2.32.36-3.6.36z" fill="#E00822"/></svg>