<svg width="8" height="12" fill="none" xmlns="http://www.w3.org/2000/svg"><path d="M4.06 11.14c-1.092 0-1.932-.22-2.52-.658-.588-.439-.882-1.101-.882-1.988 0-.355.051-.677.154-.966H.154v-.896H1.33c.187-.187.434-.355.742-.504a9.1 9.1 0 01.98-.42c.345-.121.649-.224.91-.308a5.85 5.85 0 00.504-.196H.154v-.896h5.348c.075-.13.126-.266.154-.406a2.11 2.11 0 00.056-.532c0-.439-.15-.78-.448-1.022-.299-.252-.765-.378-1.4-.378-.457 0-.891.06-1.302.182a7.92 7.92 0 00-1.078.406l-.35-1.106a6.102 6.102 0 011.302-.42A7.019 7.019 0 013.934.864c.943 0 1.685.196 2.226.588.55.383.826.97.826 1.764 0 .196-.014.392-.042.588-.028.187-.08.355-.154.504h.77v.896H6.342c-.15.15-.383.303-.7.462-.317.15-.649.29-.994.42s-.658.243-.938.336c-.28.093-.462.163-.546.21H7.56v.896H2.114c-.075.14-.126.27-.154.392-.028.121-.042.29-.042.504 0 1.083.751 1.624 2.254 1.624.532 0 1.045-.065 1.54-.196.504-.14.924-.285 1.26-.434v1.134c-.317.15-.742.285-1.274.406a7.345 7.345 0 01-1.638.182z" fill="#212121"/></svg>