<svg width="148" height="60" fill="none" xmlns="http://www.w3.org/2000/svg"><path d="M50.496 36.102H46.64V22.488h3.947c4.47 0 7.19 2.319 7.19 6.792 0 4.505-2.719 6.822-7.28 6.822zm-9.998 8.028c0 5.787-2.674 10.318-7.565 13.03-3.303 1.832-7.622 2.836-12.814 2.836C8.022 60 .031 54.548 0 44.914h12.614c.519 2.84 3.785 4.471 7.666 4.471 4.11 0 6.633-1.696 6.633-4.014 0-2.22-1.811-3.168-7.053-4.119l-4.69-.85C5.885 38.739.807 34.004.807 26.693c0-9.47 8.086-15.444 19.183-15.444 5.37 0 9.716 1.08 12.942 3.054 4.275 2.612 6.559 6.792 6.596 12.095H26.913c-.095-2.861-3.01-4.528-6.761-4.528-3.817 0-5.758 1.698-5.758 3.82s2.005 3.138 6.664 3.982l4.69.849c2.807.512 5.197 1.204 7.191 2.104 5.11 2.316 7.56 6.014 7.56 11.505zm88.286-21.053v7.605h18.019v9.927h-18.019v7.572H148v11.003h-32.932v-.879c7.492-2.941 12.333-9.557 12.379-18.122h-13.133c-.421 5.452-3.849 8.946-8.572 8.946-5.693 0-9.219-5.027-9.219-13.55 0-8.42 3.559-13.45 9.186-13.45 4.756 0 8.217 3.56 8.541 8.912h13.133c-.023-8.47-4.924-15.056-12.315-18.044v-.923H148v11.003h-19.216z" fill="#F8F8F8"/><path d="M86.743 19.786l-2.412-7.478H67.115l-1.317 4.073c3.435 2.991 5.425 7.506 5.425 13.1 0 9.334-5.987 15.69-15.118 16.867 0 0-3.664.445-9.855-.151v13.215h19.604l2.425-9.361h14.233l2.427 9.369h14.622L86.743 19.786zM70.77 40.288l4.496-17.107h.259l4.497 17.108-9.252-.002z" fill="#F8F8F8"/><path d="M87.448 3.422L85.995 8.86h-2.076L81.665.151h2.266l1.166 5.884h.049L86.587.15h1.75l1.441 5.884h.047L90.991.15h2.268l-2.256 8.708h-2.06l-1.454-5.437h-.04zm12.34 3.65V8.86h-5.927V.151h5.914v1.787h-3.712v1.731h3.498v1.626h-3.498v1.766l3.725.011zm5.065 1.787h-4.12V.151h4.011c.85 0 1.516.196 1.997.588a1.923 1.923 0 01.723 1.585c.007.465-.165.915-.48 1.255-.313.35-.741.575-1.204.634v.047a2.188 2.188 0 011.478.643 1.962 1.962 0 01.603 1.453 2.248 2.248 0 01-.816 1.828c-.552.446-1.277.675-2.198.675h.006zm-1.926-7.14V3.7h1.131c.333.02.662-.075.934-.269a.886.886 0 00.335-.74.886.886 0 00-.309-.713 1.299 1.299 0 00-.857-.257h-1.234zm0 5.571h1.304c.37.025.738-.078 1.043-.292a1.026 1.026 0 00.362-.841.983.983 0 00-.371-.822 1.672 1.672 0 00-1.046-.29h-1.292V7.29z" fill="#E00822"/><path d="M110.573 8.86h-2.081V.15h1.749l3.659 5.064h.047V.151h2.081v8.708h-1.733l-3.673-5.111h-.049v5.111zm12.144 0l-.544-1.913h-2.822l-.552 1.912h-2.234l2.899-8.708h2.686l2.899 8.708h-2.332zm-1.98-6.865l-.962 3.355h1.967l-.956-3.355h-.049zM127.5.15v5.384c-.03.433.109.86.388 1.19a1.704 1.704 0 002.251 0c.278-.33.417-.757.388-1.19V.15h2.194v5.62a2.977 2.977 0 01-1.016 2.353c-.666.59-1.556.886-2.67.886-1.114 0-2.021-.295-2.721-.886a2.977 2.977 0 01-1.016-2.354V.151h2.202zm10.439 8.708h-2.188v-6.92h-2.381V.15h6.95v1.787h-2.381v6.921zm2.738-2.522h2.087a.99.99 0 00.5.724 1.93 1.93 0 001.055.278c.358.016.713-.073 1.022-.257a.76.76 0 00.389-.655.648.648 0 00-.301-.565 3.297 3.297 0 00-1.042-.37l-1.131-.224c-.793-.153-1.393-.441-1.8-.865a2.266 2.266 0 01-.61-1.634 2.455 2.455 0 01.96-2.014c.639-.503 1.462-.755 2.47-.755 1.069 0 1.911.243 2.526.728a2.43 2.43 0 01.937 1.961h-2.021a.934.934 0 00-.42-.741 1.694 1.694 0 00-.993-.273 1.614 1.614 0 00-.923.241.758.758 0 00-.35.641.665.665 0 00.302.563c.302.181.637.301.985.353l1.117.212c.849.165 1.473.449 1.872.851a2.223 2.223 0 01.598 1.636 2.494 2.494 0 01-.993 2.065c-.657.512-1.541.768-2.654.77-1.113 0-1.983-.235-2.61-.707a2.354 2.354 0 01-.972-1.963z" fill="#F8F8F8"/></svg>