<svg width="96" height="39" fill="none" xmlns="http://www.w3.org/2000/svg"><path d="M56.523 12.709L54.96 7.848H43.792l-.855 2.648c2.229 1.944 3.52 4.879 3.52 8.514 0 6.067-3.884 10.2-9.807 10.964 0 0-2.376.29-6.392-.098v8.59h12.716l1.573-6.085h9.232l1.574 6.09h9.485l-8.315-25.762zm-10.36 13.326l2.917-11.12h.168l2.916 11.121-6-.001z" fill="#212121"/><path d="M32.755 23.466h-2.502v-8.849h2.56c2.9 0 4.664 1.507 4.664 4.415 0 2.928-1.763 4.434-4.722 4.434zm-6.485 5.218c0 3.762-1.735 6.707-4.908 8.47-2.143 1.19-4.944 1.843-8.312 1.843C5.203 39 .02 35.456 0 29.194h8.182c.337 1.846 2.455 2.906 4.973 2.906 2.666 0 4.302-1.102 4.302-2.61 0-1.442-1.175-2.058-4.575-2.676l-3.042-.552C3.818 25.179.524 22.102.524 17.349c0-6.155 5.245-10.038 12.443-10.038 3.483 0 6.303.702 8.395 1.985 2.773 1.698 4.254 4.415 4.278 7.862h-8.183c-.062-1.86-1.953-2.944-4.385-2.944-2.476 0-3.735 1.104-3.735 2.484s1.3 2.04 4.322 2.588l3.043.552c1.82.332 3.37.782 4.664 1.367 3.315 1.506 4.903 3.91 4.903 7.479zM83.536 15v4.944h11.688v6.452H83.536v4.922H96v7.152H74.64v-.572c4.859-1.912 7.999-6.212 8.029-11.779H74.15c-.273 3.544-2.497 5.814-5.56 5.814-3.693 0-5.98-3.267-5.98-8.806 0-5.474 2.308-8.743 5.959-8.743 3.084 0 5.33 2.314 5.54 5.793h8.518c-.015-5.506-3.194-9.787-7.987-11.729v-.6H96V15H83.536z" fill="#212121"/><path d="M56.723 2.225l-.943 3.533h-1.346L52.972.098h1.47l.756 3.825h.031l.936-3.825h1.134l.935 3.825h.03l.757-3.825h1.471l-1.463 5.66h-1.337l-.943-3.533h-.026zm8.004 2.372v1.161h-3.844V.098h3.836V1.26H62.31v1.125h2.269v1.057h-2.27V4.59l2.417.008zm3.285 1.161H65.34V.098h2.602c.55 0 .983.128 1.296.383a1.248 1.248 0 01.468 1.03c.005.302-.107.595-.311.816a1.26 1.26 0 01-.781.411v.03c.36.013.703.162.959.42a1.277 1.277 0 01.39.944 1.475 1.475 0 01-.529 1.188c-.358.29-.828.438-1.425.438h.003zm-1.249-4.64v1.286h.734a.943.943 0 00.606-.174.577.577 0 00.217-.48.572.572 0 00-.2-.465.84.84 0 00-.556-.167h-.8zm0 3.62h.846c.24.017.479-.05.677-.19a.663.663 0 00.234-.546.643.643 0 00-.24-.534 1.081 1.081 0 00-.679-.19h-.838v1.46z" fill="#E00822"/><path d="M71.724 5.758h-1.35V.098h1.135l2.373 3.292h.03V.098h1.35v5.66h-1.124l-2.382-3.322h-.032v3.322zm7.877 0l-.353-1.243h-1.83l-.358 1.243h-1.45l1.88-5.66h1.743l1.88 5.66h-1.512zm-1.284-4.461l-.624 2.18h1.275l-.62-2.18h-.031zM82.703.098v3.5c-.02.281.071.559.252.773a1.103 1.103 0 001.46 0c.18-.215.27-.492.252-.773v-3.5h1.423v3.653a1.941 1.941 0 01-.66 1.53c-.431.384-1.008.576-1.731.576-.723 0-1.311-.192-1.765-.577a1.923 1.923 0 01-.659-1.53V.099h1.428zm6.772 5.66h-1.42V1.26h-1.544V.098h4.508V1.26h-1.544v4.498zM91.25 4.12h1.353a.642.642 0 00.325.47c.206.126.443.188.684.181a1.18 1.18 0 00.663-.167.493.493 0 00.252-.425.422.422 0 00-.195-.367c-.21-.119-.439-.2-.676-.241l-.733-.146c-.515-.1-.904-.287-1.168-.562A1.469 1.469 0 0191.36 1.8a1.596 1.596 0 01.623-1.31c.414-.326.948-.49 1.602-.49.694 0 1.24.158 1.639.473a1.565 1.565 0 01.608 1.275H94.52a.612.612 0 00-.273-.482 1.098 1.098 0 00-.644-.177c-.21-.01-.419.045-.599.157a.483.483 0 00-.227.416.43.43 0 00.196.366c.196.118.413.196.639.23l.725.137c.55.108.955.292 1.214.554a1.438 1.438 0 01.388 1.063 1.626 1.626 0 01-.644 1.342c-.426.333-1 .5-1.722.5s-1.286-.152-1.693-.459a1.526 1.526 0 01-.63-1.276z" fill="#212121"/></svg>