<svg width="315" height="79" fill="none" xmlns="http://www.w3.org/2000/svg"><path fill-rule="evenodd" clip-rule="evenodd" d="M315 2a2 2 0 00-2-2H2a2 2 0 00-2 2v61a2 2 0 002 2h143.14a2 2 0 011.526.707l9.813 11.588a2 2 0 003.053 0l9.813-11.588a2 2 0 011.526-.707H313a2 2 0 002-2V2z" fill="#fff"/><path d="M20.93 18.85h2.79l4.14 20.34h.78l3.99-20.34h6.06l3.99 20.34h.78l4.14-20.34h2.79L46.07 40h-6l-4.02-20.34h-.78L31.25 40h-6l-4.32-21.15zM52.862 40V18.85h13.47v2.52h-10.56v6.78h9.06v2.52h-9.06v6.81h10.56V40h-13.47zm16.846 0V18.85h5.94c2.84 0 4.92.37 6.24 1.11 1.34.74 2.01 2.1 2.01 4.08 0 2.72-1.46 4.2-4.38 4.44v.78c3.96.12 5.94 1.83 5.94 5.13 0 2.06-.74 3.51-2.22 4.35-1.48.84-3.62 1.26-6.42 1.26h-7.11zm2.91-12.27h3.24c1.78 0 3.08-.2 3.9-.6.82-.42 1.23-1.28 1.23-2.58 0-.58-.09-1.07-.27-1.47-.16-.4-.37-.71-.63-.93-.24-.24-.6-.41-1.08-.51-.48-.12-.94-.19-1.38-.21-.44-.04-1.03-.06-1.77-.06h-3.24v6.36zm0 9.75h4.41c1.92 0 3.32-.23 4.2-.69.88-.48 1.32-1.45 1.32-2.91 0-1.38-.46-2.33-1.38-2.85-.9-.52-2.28-.78-4.14-.78h-4.41v7.23z" fill="#E00822"/><path d="M89.425 40V18.85h5.85l9.69 20.34h.81l-.51-1.98V18.85h2.94V40h-5.85l-9.72-20.34h-.81l.51 1.98V40h-2.91zm37.945 0l-2.49-7.98h-8.55L113.84 40h-2.91l6.66-21.15h6.03L130.28 40h-2.91zm-10.26-10.5h6.99l-3.09-9.84h-.81l-3.09 9.84zm14.723 2.64V18.85h2.91v12.57c0 2.2.41 3.81 1.23 4.83.84 1.02 2.32 1.53 4.44 1.53 2.12 0 3.6-.51 4.44-1.53.86-1.04 1.29-2.65 1.29-4.83V18.85h2.91v13.29c0 5.44-2.88 8.16-8.64 8.16-5.72 0-8.58-2.72-8.58-8.16zm37.403-13.29v2.52h-7.26V40h-2.91V21.37h-7.26v-2.52h17.43zm18.676 15.72c0 3.82-2.77 5.73-8.31 5.73-3.52 0-6.02-.7-7.5-2.1-1.48-1.42-2.22-3.47-2.22-6.15h2.91c0 2.2.55 3.71 1.65 4.53 1.12.8 2.86 1.2 5.22 1.2 1.8 0 3.14-.24 4.02-.72.88-.48 1.32-1.27 1.32-2.37 0-.4-.06-.76-.18-1.08-.1-.34-.31-.64-.63-.9-.3-.28-.57-.51-.81-.69-.22-.18-.61-.37-1.17-.57-.54-.22-.94-.37-1.2-.45-.24-.1-.72-.25-1.44-.45-.7-.22-1.16-.36-1.38-.42-1-.3-1.81-.56-2.43-.78-.6-.22-1.25-.51-1.95-.87s-1.24-.74-1.62-1.14c-.38-.4-.7-.89-.96-1.47-.26-.6-.39-1.27-.39-2.01 0-3.54 2.55-5.31 7.65-5.31 2.9 0 5.05.71 6.45 2.13 1.4 1.42 2.1 3.14 2.1 5.16h-2.91c0-1.6-.53-2.79-1.59-3.57-1.04-.8-2.39-1.2-4.05-1.2-3.16 0-4.74.92-4.74 2.76 0 .92.36 1.63 1.08 2.13.74.48 2.06 1.03 3.96 1.65 2.72.86 4.51 1.5 5.37 1.92 2.5 1.24 3.75 2.92 3.75 5.04zm7.563 4.95c-.5.52-1.13.78-1.89.78s-1.39-.25-1.89-.75c-.48-.52-.72-1.16-.72-1.92 0-.74.24-1.36.72-1.86.5-.52 1.13-.78 1.89-.78.74 0 1.37.26 1.89.78.52.5.78 1.12.78 1.86s-.26 1.37-.78 1.89zm22.467-4.95c0 3.82-2.77 5.73-8.31 5.73-3.52 0-6.02-.7-7.5-2.1-1.48-1.42-2.22-3.47-2.22-6.15h2.91c0 2.2.55 3.71 1.65 4.53 1.12.8 2.86 1.2 5.22 1.2 1.8 0 3.14-.24 4.02-.72.88-.48 1.32-1.27 1.32-2.37 0-.4-.06-.76-.18-1.08-.1-.34-.31-.64-.63-.9-.3-.28-.57-.51-.81-.69-.22-.18-.61-.37-1.17-.57-.54-.22-.94-.37-1.2-.45-.24-.1-.72-.25-1.44-.45-.7-.22-1.16-.36-1.38-.42-1-.3-1.81-.56-2.43-.78-.6-.22-1.25-.51-1.95-.87s-1.24-.74-1.62-1.14c-.38-.4-.7-.89-.96-1.47-.26-.6-.39-1.27-.39-2.01 0-3.54 2.55-5.31 7.65-5.31 2.9 0 5.05.71 6.45 2.13 1.4 1.42 2.1 3.14 2.1 5.16h-2.91c0-1.6-.53-2.79-1.59-3.57-1.04-.8-2.39-1.2-4.05-1.2-3.16 0-4.74.92-4.74 2.76 0 .92.36 1.63 1.08 2.13.74.48 2.06 1.03 3.96 1.65 2.72.86 4.51 1.5 5.37 1.92 2.5 1.24 3.75 2.92 3.75 5.04zm9.5-15.72c1.42 0 2.64.1 3.66.3 1.02.2 1.94.56 2.76 1.08.82.5 1.43 1.22 1.83 2.16.42.94.63 2.1.63 3.48s-.21 2.54-.63 3.48c-.4.94-1.01 1.67-1.83 2.19-.82.5-1.74.85-2.76 1.05-1.02.2-2.24.3-3.66.3h-3.33V40h-2.91V18.85h6.24zm.09 11.52c.96 0 1.76-.05 2.4-.15.64-.12 1.24-.33 1.8-.63.58-.3 1-.75 1.26-1.35.28-.62.42-1.41.42-2.37 0-.96-.14-1.74-.42-2.34a2.66 2.66 0 00-1.26-1.38c-.56-.3-1.16-.5-1.8-.6-.64-.12-1.44-.18-2.4-.18h-3.42v9h3.42zM252.526 40l-2.49-7.98h-8.55l-2.49 7.98h-2.91l6.66-21.15h6.03l6.66 21.15h-2.91zm-10.26-10.5h6.99l-3.09-9.84h-.81l-3.09 9.84zm14.144-.09c0-3.16.9-5.76 2.7-7.8 1.82-2.04 4.28-3.06 7.38-3.06 2.74 0 4.96.76 6.66 2.28 1.72 1.5 2.74 3.56 3.06 6.18h-2.91c-.24-1.9-.95-3.36-2.13-4.38-1.18-1.04-2.74-1.56-4.68-1.56-2.28 0-4.05.76-5.31 2.28-1.24 1.5-1.86 3.52-1.86 6.06 0 2.54.62 4.57 1.86 6.09 1.24 1.52 3.01 2.28 5.31 2.28 1.94 0 3.5-.52 4.68-1.56 1.18-1.04 1.89-2.51 2.13-4.41h2.91c-.32 2.64-1.34 4.72-3.06 6.24-1.7 1.5-3.92 2.25-6.66 2.25-3.1 0-5.56-1.02-7.38-3.06-1.8-2.04-2.7-4.65-2.7-7.83zM279.591 40V18.85h13.47v2.52h-10.56v6.78h9.06v2.52h-9.06v6.81h10.56V40h-13.47z" fill="#212121"/></svg>