<svg width="13" height="13" fill="none" xmlns="http://www.w3.org/2000/svg"><path d="M1.683 7.46a67.81 67.81 0 001.933-2.925C2.036 4.675.523 6.64.523 6.64l1.042 1.042c.03-.077.07-.152.118-.222zm4.07 4.41l1.042 1.041s1.964-1.513 2.104-3.092c-.656.41-1.545.974-2.924 1.932a1.08 1.08 0 01-.222.119zm-1.584-.54c-.179.073-.355.15-.538.211-.49.164-.993.274-1.504.345-.214.03-.43.054-.647.07l.006-.08a9.7 9.7 0 01.252-1.545c.062-.245.14-.482.225-.72.052-.148.118-.289.184-.43l-.115-.115a2.843 2.843 0 00-.664.632 4.15 4.15 0 00-.633 1.206 5.03 5.03 0 00-.265 1.447c-.002.07-.007.14.004.208a.483.483 0 00.328.384c.07.023.142.023.215.023a4.835 4.835 0 001.324-.208c.78-.231 1.566-.667 2.028-1.356l-.112-.111-.088.04zM12.84.594a.432.432 0 00-.314-.126c-1.391.027-4.824.287-6.647 2.11-.828.828-1.097 1.259-1.686 2.203-.425.68-1.006 1.61-2.068 3.14a.432.432 0 00.049.552l2.787 2.787a.432.432 0 00.552.05c1.53-1.063 2.46-1.644 3.14-2.069.944-.59 1.375-.858 2.203-1.686 1.826-1.826 2.085-5.257 2.11-6.647a.432.432 0 00-.126-.314zm-3.227 5.26A1.437 1.437 0 117.581 3.82a1.437 1.437 0 012.032 2.032z" fill="#212121"/></svg>