<svg width="972" height="32" fill="none" xmlns="http://www.w3.org/2000/svg"><path d="M516 4.712c-1.733 8.142-3.138 9.357-12.551 10.855 9.414 1.5 10.818 2.714 12.551 10.855 1.733-8.14 3.138-9.356 12.551-10.855-9.413-1.498-10.818-2.713-12.551-10.855zm-501 0c-1.733 8.142-3.138 9.357-12.55 10.855 9.413 1.5 10.817 2.714 12.55 10.855 1.733-8.14 3.138-9.356 12.551-10.855-9.413-1.498-10.818-2.713-12.55-10.855zM60.8 1.8H67l4.48 26.6h1.6l3.48-26.6h13.6l3.48 26.6h1.6l4.48-26.6h6.2L101.08 30H87.8L84.16 3.4h-1.6L78.92 30H65.64L60.8 1.8zM109.937 30V1.8h20.12v5.6h-13.72v5.68h11.72v5.6h-11.72v5.72h13.72V30h-20.12zm25.311 0V1.8h9.92c4.134 0 7.107.493 8.92 1.48 1.814.96 2.72 2.773 2.72 5.44 0 .72-.093 1.373-.28 1.96-.16.587-.333 1.067-.52 1.44-.186.373-.506.707-.96 1-.453.267-.8.467-1.04.6-.24.133-.693.253-1.36.36-.64.107-1.066.173-1.28.2-.186 0-.626.027-1.32.08v1.6c1.067.027 1.934.08 2.6.16.667.08 1.44.253 2.32.52.88.24 1.574.587 2.08 1.04.507.427.934 1.053 1.28 1.88.374.827.56 1.813.56 2.96 0 1.253-.24 2.333-.72 3.24-.453.907-1.053 1.627-1.8 2.16-.746.533-1.72.96-2.92 1.28-1.173.32-2.373.533-3.6.64-1.2.107-2.6.16-4.2.16h-10.4zm6.4-17.48h5.8c.32-.027.707-.08 1.16-.16.48-.08.814-.2 1-.36.214-.187.4-.44.56-.76.16-.347.24-.773.24-1.28s-.08-.92-.24-1.24c-.16-.347-.346-.6-.56-.76-.186-.187-.52-.32-1-.4-.453-.08-.84-.12-1.16-.12a19.66 19.66 0 00-1.48-.04h-4.32v5.12zm0 11.88h6.92a14.45 14.45 0 001.6-.2c.64-.107 1.08-.267 1.32-.48.267-.213.494-.52.68-.92.214-.4.32-.907.32-1.52s-.106-1.12-.32-1.52c-.186-.427-.413-.747-.68-.96-.24-.213-.68-.373-1.32-.48a9.497 9.497 0 00-1.6-.16c-.453-.027-1.16-.04-2.12-.04h-4.8v6.28zm22.036 5.6V1.8h12.6l8.52 26.6h1.6l-1.2-4V1.8h6.4V30h-12.6l-8.52-26.6h-1.6l1.2 4V30h-6.4zm55.344 0l-2.56-9.04h-11.44l-2.52 9.04h-6.48l8.12-28.2h13.2l8.16 28.2h-6.48zm-12.44-14.64h8.32l-3.36-11.96h-1.6l-3.36 11.96zm21.723 4.16V1.8h6.4v14.88c0 1.173.027 2.12.08 2.84.08.693.227 1.413.44 2.16.24.747.587 1.333 1.04 1.76.453.4 1.067.733 1.84 1 .8.24 1.773.36 2.92.36 1.44 0 2.6-.173 3.48-.52.88-.347 1.52-.907 1.92-1.68.4-.8.653-1.627.76-2.48.133-.853.2-2 .2-3.44V1.8h6.4v17.72c0 3.52-1.093 6.213-3.28 8.08-2.16 1.867-5.32 2.8-9.48 2.8s-7.32-.92-9.48-2.76c-2.16-1.867-3.24-4.573-3.24-8.12zM283.023 1.8v5.6h-9.2V30h-6.4V7.4h-9.24V1.8h24.84zm27.644 20.44c0 2.56-.974 4.56-2.92 6-1.947 1.44-5 2.16-9.16 2.16-4.907 0-8.467-.947-10.68-2.84-2.187-1.92-3.28-4.733-3.28-8.44h6.4c0 2.133.573 3.613 1.72 4.44 1.173.827 3.186 1.24 6.04 1.24 3.653 0 5.48-.827 5.48-2.48 0-.587-.32-1.12-.96-1.6a7.442 7.442 0 00-2.04-1.16c-.72-.293-1.84-.693-3.36-1.2a5.771 5.771 0 00-.4-.12 5.612 5.612 0 01-.4-.12l-.4-.16a468.659 468.659 0 01-2.92-1c-.614-.24-1.44-.573-2.48-1-1.04-.453-1.814-.867-2.32-1.24-.48-.4-1-.893-1.56-1.48a5.203 5.203 0 01-1.2-1.96c-.214-.72-.32-1.533-.32-2.44 0-2.4.933-4.24 2.8-5.52 1.893-1.28 4.653-1.92 8.28-1.92 4.133 0 7.253.933 9.36 2.8 2.106 1.84 3.16 4.24 3.16 7.2h-6.4c0-2.933-2.04-4.4-6.12-4.4-3.12 0-4.68.693-4.68 2.08 0 .64.306 1.16.92 1.56.613.4 2.04.973 4.28 1.72 3.733 1.28 6.24 2.227 7.52 2.84 3.76 1.893 5.64 4.24 5.64 7.04zm9.176 8.16c-1.334 0-2.4-.413-3.2-1.24-.774-.853-1.16-1.92-1.16-3.2 0-1.253.386-2.293 1.16-3.12.8-.827 1.866-1.24 3.2-1.24 1.306 0 2.373.427 3.2 1.28.826.827 1.24 1.853 1.24 3.08 0 1.28-.414 2.347-1.24 3.2-.827.827-1.894 1.24-3.2 1.24zm36.094-8.16c0 2.56-.973 4.56-2.92 6-1.947 1.44-5 2.16-9.16 2.16-4.907 0-8.467-.947-10.68-2.84-2.187-1.92-3.28-4.733-3.28-8.44h6.4c0 2.133.573 3.613 1.72 4.44 1.173.827 3.187 1.24 6.04 1.24 3.653 0 5.48-.827 5.48-2.48 0-.587-.32-1.12-.96-1.6a7.442 7.442 0 00-2.04-1.16c-.72-.293-1.84-.693-3.36-1.2a5.612 5.612 0 00-.4-.12 5.612 5.612 0 01-.4-.12l-.4-.16a493.112 493.112 0 01-2.92-1c-.613-.24-1.44-.573-2.48-1-1.04-.453-1.813-.867-2.32-1.24-.48-.4-1-.893-1.56-1.48a5.203 5.203 0 01-1.2-1.96c-.213-.72-.32-1.533-.32-2.44 0-2.4.933-4.24 2.8-5.52 1.893-1.28 4.653-1.92 8.28-1.92 4.133 0 7.253.933 9.36 2.8 2.107 1.84 3.16 4.24 3.16 7.2h-6.4c0-2.933-2.04-4.4-6.12-4.4-3.12 0-4.68.693-4.68 2.08 0 .64.307 1.16.92 1.56.613.4 2.04.973 4.28 1.72 3.733 1.28 6.24 2.227 7.52 2.84 3.76 1.893 5.64 4.24 5.64 7.04zM370.864 1.8c1.973 0 3.64.12 5 .36 1.386.24 2.68.693 3.88 1.36 1.226.667 2.146 1.68 2.76 3.04.613 1.36.92 3.067.92 5.12 0 1.68-.214 3.12-.64 4.32-.427 1.2-1 2.16-1.72 2.88-.694.72-1.6 1.293-2.72 1.72-1.12.4-2.254.667-3.4.8-1.147.133-2.507.2-4.08.2h-3.72V30h-6.4V1.8h10.12zm.4 14.2c2.106 0 3.586-.253 4.44-.76.88-.533 1.32-1.72 1.32-3.56 0-1.813-.44-2.973-1.32-3.48-.854-.533-2.334-.8-4.44-.8h-4.12V16h4.12zm35.566 14l-2.56-9.04h-11.44L390.31 30h-6.48l8.12-28.2h13.2l8.16 28.2h-6.48zm-12.44-14.64h8.32L399.35 3.4h-1.6l-3.36 11.96zm20.951.52c0-4.187 1.306-7.64 3.92-10.36 2.64-2.747 6.16-4.12 10.56-4.12 3.92 0 7.106 1.013 9.56 3.04 2.48 2 3.933 4.747 4.36 8.24h-6.4c-.32-1.813-1.147-3.213-2.48-4.2-1.334-.987-2.987-1.48-4.96-1.48-2.507 0-4.494.773-5.96 2.32-1.467 1.52-2.2 3.707-2.2 6.56 0 2.853.733 5.053 2.2 6.6 1.466 1.547 3.453 2.32 5.96 2.32 1.973 0 3.626-.493 4.96-1.48 1.333-1.013 2.16-2.427 2.48-4.24h6.4c-.427 3.52-1.88 6.293-4.36 8.32-2.454 2-5.64 3-9.56 3-4.4 0-7.92-1.36-10.56-4.08-2.614-2.747-3.92-6.227-3.92-10.44zM448.942 30V1.8h20.12v5.6h-13.72v5.68h11.72v5.6h-11.72v5.72h13.72V30h-20.12zM561.8 1.8v-1h-1.186l.2 1.17.986-.17zm6.2 0l.986-.166-.14-.834H568v1zm4.48 26.6l-.986.166.14.834h.846v-1zm1.6 0v1h.878l.114-.87-.992-.13zm3.48-26.6v-1h-.878l-.114.87.992.13zm13.6 0l.992-.13-.114-.87h-.878v1zm3.48 26.6l-.992.13.114.87h.878v-1zm1.6 0v1h.846l.14-.834-.986-.166zm4.48-26.6v-1h-.846l-.14.834.986.166zm6.2 0l.986.17.2-1.17h-1.186v1zM602.08 30v1h.843l.143-.83-.986-.17zm-13.28 0l-.991.136.119.864h.872v-1zm-3.64-26.6l.991-.136-.119-.864h-.872v1zm-1.6 0v-1h-.872l-.119.864.991.136zM579.92 30v1h.872l.119-.864-.991-.136zm-13.28 0l-.986.17.143.83h.843v-1zM561.8 2.8h6.2v-2h-6.2v2zm5.214-.834l4.48 26.6 1.972-.332-4.48-26.6-1.972.332zM572.48 29.4h1.6v-2h-1.6v2zm2.592-.87l3.48-26.6-1.984-.26-3.48 26.6 1.984.26zM577.56 2.8h13.6v-2h-13.6v2zm12.608-.87l3.48 26.6 1.984-.26-3.48-26.6-1.984.26zm4.472 27.47h1.6v-2h-1.6v2zm2.586-.834l4.48-26.6-1.972-.332-4.48 26.6 1.972.332zM600.72 2.8h6.2v-2h-6.2v2zm5.214-1.17l-4.84 28.2 1.972.34 4.84-28.2-1.972-.34zM602.08 29H588.8v2h13.28v-2zm-12.289.864l-3.64-26.6-1.982.272 3.64 26.6 1.982-.272zM585.16 2.4h-1.6v2h1.6v-2zm-2.591.864l-3.64 26.6 1.982.272 3.64-26.6-1.982-.272zM579.92 29h-13.28v2h13.28v-2zm-12.294.83l-4.84-28.2-1.972.34 4.84 28.2 1.972-.34zm43.311.17h-1v1h1v-1zm0-28.2v-1h-1v1h1zm20.12 0h1v-1h-1v1zm0 5.6v1h1v-1h-1zm-13.72 0v-1h-1v1h1zm0 5.68h-1v1h1v-1zm11.72 0h1v-1h-1v1zm0 5.6v1h1v-1h-1zm-11.72 0v-1h-1v1h1zm0 5.72h-1v1h1v-1zm13.72 0h1v-1h-1v1zm0 5.6v1h1v-1h-1zm-19.12 0V1.8h-2V30h2zm-1-27.2h20.12v-2h-20.12v2zm19.12-1v5.6h2V1.8h-2zm1 4.6h-13.72v2h13.72v-2zm-14.72 1v5.68h2V7.4h-2zm1 6.68h11.72v-2h-11.72v2zm10.72-1v5.6h2v-5.6h-2zm1 4.6h-11.72v2h11.72v-2zm-12.72 1v5.72h2v-5.72h-2zm1 6.72h13.72v-2h-13.72v2zm12.72-1V30h2v-5.6h-2zm1 4.6h-20.12v2h20.12v-2zm5.191 1h-1v1h1v-1zm0-28.2v-1h-1v1h1zm18.84 1.48l-.478.878.011.006.467-.884zm2.44 7.4l-.952-.303-.007.02-.005.02.964.263zm-.52 1.44l.895.447-.895-.447zm-.96 1l.507.862.019-.01.018-.012-.544-.84zm-1.04.6l.486.874-.486-.874zm-1.36.36l-.158-.988-.006.002.164.986zm-1.28.2v1h.063l.061-.008-.124-.992zm-1.32.08l-.076-.997-.924.071v.926h1zm0 1.6h-1v.975l.975.025.025-1zm2.6.16l-.119.993.119-.993zm2.32.52l-.29.957.014.004.013.004.263-.965zm2.08 1.04l-.666.745.011.01.011.01.644-.765zm1.28 1.88l-.922.387.005.012.006.013.911-.412zm-.16 6.2l-.883-.468-.006.01-.005.01.894.448zm-1.8 2.16l-.581-.814.581.814zm-2.92 1.28l-.257-.966-.006.001.263.965zm-3.6.64l-.086-.996h-.002l.088.996zm-8.2-17.32h-1v1h1v-1zm5.8 0v1h.042l.041-.003-.083-.997zm1.16-.16l-.164-.986-.009.001.173.985zm1-.36l.651.76.008-.007-.659-.753zm.56-.76l.895.447.007-.014.006-.014-.908-.419zm0-2.52l-.908.42.007.013.007.014.894-.447zm-.56-.76l-.707.707.051.05.056.043.6-.8zm-1-.4l-.173.985.009.001.164-.986zm-1.16-.12l-.083.997.042.003h.041v-1zm-5.8-.04v-1h-1v1h1zm0 17h-1v1h1v-1zm6.92 0v1h.03l.029-.002-.059-.998zm1.6-.2l-.164-.986h-.007l.171.986zm1.32-.48l-.624-.78-.021.015-.019.018.664.747zm.68-.92l-.882-.47-.012.023-.012.024.906.423zm0-3.04l-.916.4.016.036.018.035.882-.471zm-.68-.96l-.664.747.019.018.021.016.624-.781zm-1.32-.48l-.171.985.007.001.164-.986zm-1.6-.16l-.058.998.029.002h.029v-1zm-6.92-.04v-1h-1v1h1zm-5.4 11.88V1.8h-2V30h2zm-1-27.2h9.92v-2h-9.92v2zm9.92 0c4.103 0 6.861.498 8.442 1.358l.956-1.756C653.521 1.289 650.333.8 646.168.8v2zm8.453 1.364c1.385.733 2.187 2.13 2.187 4.556h2c0-2.907-1.01-5.137-3.252-6.324l-.935 1.768zm2.187 4.556c0 .634-.082 1.183-.232 1.657l1.905.606c.223-.7.327-1.457.327-2.263h-2zm-.244 1.697c-.15.549-.303.961-.45 1.256l1.789.894c.226-.452.42-1 .59-1.624l-1.929-.526zm-.45 1.256c-.087.173-.262.383-.609.607l1.087 1.68c.56-.363 1.024-.82 1.311-1.393l-1.789-.894zm-.573.585c-.451.266-.789.46-1.018.588l.971 1.748c.251-.14.606-.344 1.061-.612l-1.014-1.724zm-1.018.588l-.02.01a2.413 2.413 0 01-.27.088 7.84 7.84 0 01-.743.149l.316 1.974c.662-.106 1.277-.245 1.688-.473l-.971-1.748zm-1.039.248c-.643.107-1.05.17-1.24.194l.248 1.984c.237-.03.684-.1 1.321-.206l-.329-1.972zm-1.116.186c-.233 0-.715.03-1.396.083l.153 1.994a23.833 23.833 0 011.243-.077v-2zm-2.32 1.08v1.6h2v-1.6h-2zm.975 2.6c1.052.026 1.884.078 2.506.153l.239-1.986c-.711-.085-1.612-.14-2.695-.167l-.05 2zm2.506.153c.592.07 1.306.229 2.149.484l.58-1.914c-.916-.278-1.749-.467-2.49-.556l-.239 1.986zm2.176.492c.779.212 1.318.5 1.677.82l1.333-1.49c-.655-.586-1.502-.992-2.483-1.26l-.527 1.93zm1.699.84c.35.295.696.772 1.002 1.502l1.845-.774c-.388-.923-.895-1.7-1.558-2.258l-1.289 1.53zm1.013 1.527c.302.668.471 1.507.471 2.548h2c0-1.252-.203-2.386-.648-3.372l-1.823.824zm.471 2.548c0 1.126-.215 2.038-.603 2.772l1.767.936c.572-1.08.836-2.327.836-3.708h-2zm-.614 2.793c-.388.776-.886 1.364-1.487 1.793l1.163 1.628c.893-.638 1.594-1.49 2.113-2.527l-1.789-.894zm-1.487 1.793c-.621.444-1.474.828-2.596 1.128l.515 1.932c1.278-.34 2.371-.81 3.244-1.432l-1.163-1.628zm-2.602 1.13a19.35 19.35 0 01-3.423.608l.173 1.992a21.354 21.354 0 003.777-.671l-.527-1.93zm-3.425.608a47.128 47.128 0 01-4.112.156v2c1.621 0 3.052-.054 4.289-.164l-.177-1.992zm-4.112.156h-10.4v2h10.4v-2zm-4-15.48h4.32v-2h-4.32v2zm4.32 0h1.48v-2h-1.48v2zm1.563-.003c.361-.03.78-.089 1.251-.172l-.347-1.97c-.435.077-.79.125-1.07.149l.166 1.993zm1.242-.17c.515-.086 1.081-.24 1.486-.588l-1.301-1.518c.029-.026.02-.007-.078.028a2.59 2.59 0 01-.436.105l.329 1.972zm1.494-.594a3.45 3.45 0 00.796-1.066l-1.789-.894c-.117.233-.23.373-.324.454l1.317 1.506zm.809-1.094c.237-.514.332-1.093.332-1.699h-2c0 .407-.065.681-.148.86l1.816.84zm.332-1.699c0-.601-.093-1.183-.345-1.687l-1.789.894c.068.136.134.381.134.793h2zm-.332-1.66c-.201-.435-.477-.847-.868-1.14l-1.2 1.6c.036.027.134.122.252.38l1.816-.84zm-.76-1.047c-.414-.414-1.008-.59-1.543-.68l-.329 1.973c.192.032.322.07.403.102.084.034.085.05.054.02l1.415-1.415zm-1.534-.678a7.813 7.813 0 00-1.334-.135v2c.243 0 .568.03.987.105l.347-1.97zm-1.251-.132a20.72 20.72 0 00-1.563-.043v2c.662 0 1.121.014 1.397.037l.166-1.994zm-1.563-.043h-4.32v2h4.32v-2zm-5.32 1v5.12h2V7.4h-2zm1 18h4.8v-2h-4.8v2zm4.8 0h2.12v-2h-2.12v2zm2.179-.002c.502-.03 1.075-.102 1.713-.213l-.343-1.97c-.589.102-1.083.163-1.487.187l.117 1.996zm1.706-.212c.671-.111 1.355-.306 1.82-.719l-1.329-1.494c.007-.007-.036.032-.187.087a3.682 3.682 0 01-.633.154l.329 1.972zm1.78-.685c.417-.333.728-.778.962-1.278l-1.813-.846c-.14.3-.282.469-.398.562l1.249 1.562zm.938-1.23c.313-.587.437-1.269.437-1.991h-2c0 .505-.088.836-.202 1.05l1.765.94zm.437-1.991c0-.722-.124-1.404-.437-1.99l-1.765.94c.114.214.202.545.202 1.05h2zm-.403-1.92c-.23-.524-.541-.996-.972-1.34l-1.249 1.56c.102.083.244.251.388.58l1.833-.8zm-.932-1.307c-.465-.413-1.149-.608-1.82-.72l-.329 1.973c.281.047.487.101.633.154.151.055.194.094.187.087l1.329-1.494zm-1.813-.718a10.493 10.493 0 00-1.772-.175v2c.38 0 .853.045 1.429.145l.343-1.97zm-1.713-.173a40.91 40.91 0 00-2.179-.042v2a39.2 39.2 0 012.062.038l.117-1.996zm-2.179-.042h-4.8v2h4.8v-2zm-5.8 1v6.28h2v-6.28h-2zM664.684 30h-1v1h1v-1zm0-28.2v-1h-1v1h1zm12.6 0l.953-.305-.223-.695h-.73v1zm8.52 26.6l-.952.305.223.695h.729v-1zm1.6 0v1h1.344l-.386-1.287-.958.287zm-1.2-4h-1v.147l.043.14.957-.287zm0-22.6v-1h-1v1h1zm6.4 0h1v-1h-1v1zm0 28.2v1h1v-1h-1zm-12.6 0l-.952.305.223.695h.729v-1zm-8.52-26.6l.953-.305-.223-.695h-.73v1zm-1.6 0v-1h-1.344l.387 1.287.957-.287zm1.2 4h1v-.147l-.042-.14-.958.287zm0 22.6v1h1v-1h-1zm-5.4 0V1.8h-2V30h2zm-1-27.2h12.6v-2h-12.6v2zm11.648-.695l8.52 26.6 1.905-.61-8.52-26.6-1.905.61zm9.472 27.295h1.6v-2h-1.6v2zm2.558-1.287l-1.2-4-1.915.574 1.2 4 1.915-.574zm-1.158-3.713V1.8h-2v22.6h2zm-1-21.6h6.4v-2h-6.4v2zm5.4-1V30h2V1.8h-2zm1 27.2h-12.6v2h12.6v-2zm-11.647.695l-8.52-26.6-1.905.61 8.52 26.6 1.905-.61zM671.484 2.4h-1.6v2h1.6v-2zm-2.557 1.287l1.2 4 1.915-.574-1.2-4-1.915.574zm1.157 3.713V30h2V7.4h-2zm1 21.6h-6.4v2h6.4v-2zm48.944 1l-.962.273.206.727h.756v-1zm-2.56-9.04l.962-.273-.206-.727h-.756v1zm-11.44 0v-1h-.759l-.204.732.963.268zm-2.52 9.04v1h.759l.204-.732-.963-.268zm-6.48 0l-.961-.277L695.7 31h1.328v-1zm8.12-28.2v-1h-.753l-.208.723.961.277zm13.2 0l.961-.278L719.1.8h-.752v1zm8.16 28.2v1h1.331l-.37-1.278-.961.278zm-18.92-14.64l-.963-.27-.357 1.27h1.32v-1zm8.32 0v1h1.32l-.357-1.27-.963.27zm-3.36-11.96l.963-.27-.205-.73h-.758v1zm-1.6 0v-1h-.758l-.205.73.963.27zm10.042 26.328l-2.56-9.04-1.924.545 2.56 9.04 1.924-.546zm-3.522-9.768h-11.44v2h11.44v-2zm-12.403.732l-2.52 9.04 1.926.537 2.52-9.04-1.926-.537zM703.508 29h-6.48v2h6.48v-2zm-5.519 1.277l8.12-28.2-1.922-.554-8.12 28.2 1.922.554zM705.148 2.8h13.2v-2h-13.2v2zm12.24-.722l8.16 28.2 1.921-.556-8.16-28.2-1.921.556zM726.508 29h-6.48v2h6.48v-2zm-18.92-12.64h8.32v-2h-8.32v2zm9.283-1.27l-3.36-11.96-1.926.54 3.36 11.96 1.926-.54zM712.548 2.4h-1.6v2h1.6v-2zm-2.563.73l-3.36 11.96 1.926.54 3.36-11.96-1.926-.54zm19.326-1.33v-1h-1v1h1zm6.4 0h1v-1h-1v1zm.08 17.72l-.997.074.001.02.003.02.993-.114zm.44 2.16l-.962.275.005.015.005.016.952-.306zm1.04 1.76l-.685.728.011.011.012.01.662-.749zm1.84 1l-.326.945.019.007.02.006.287-.958zm8.32-1.84l.888.46.006-.013-.894-.447zm.76-2.48l-.988-.154-.002.015-.002.015.992.124zm.2-18.32v-1h-1v1h1zm6.4 0h1v-1h-1v1zm-3.28 25.8l-.649-.76-.005.003.654.757zm-18.96.04l-.654.757.005.004.649-.761zm-2.24-8.12V1.8h-2v17.72h2zm-1-16.72h6.4v-2h-6.4v2zm5.4-1v14.88h2V1.8h-2zm0 14.88c0 1.185.027 2.159.083 2.914l1.994-.148a39.083 39.083 0 01-.077-2.766h-2zm.087 2.955c.086.753.245 1.526.471 2.32l1.923-.55c-.2-.7-.335-1.366-.408-2l-1.986.23zm.481 2.351c.278.867.702 1.613 1.307 2.182l1.37-1.456c-.302-.285-.572-.711-.773-1.338l-1.904.612zm1.33 2.204c.58.511 1.32.9 2.176 1.195l.652-1.89c-.691-.239-1.177-.516-1.504-.805l-1.324 1.5zm2.215 1.208c.92.276 1.996.402 3.207.402v-2c-1.083 0-1.953-.114-2.633-.318l-.574 1.916zm3.207.402c1.507 0 2.805-.18 3.846-.59l-.733-1.86c-.718.283-1.74.45-3.113.45v2zm3.846-.59c1.085-.427 1.921-1.143 2.442-2.15l-1.776-.92c-.279.54-.723.943-1.399 1.21l.733 1.86zm2.448-2.163a8.614 8.614 0 00.858-2.803l-1.984-.248a6.637 6.637 0 01-.662 2.157l1.788.894zm.854-2.773c.145-.927.212-2.132.212-3.594h-2c0 1.418-.066 2.506-.188 3.286l1.976.308zm.212-3.594V1.8h-2v14.88h2zm-1-13.88h6.4v-2h-6.4v2zm5.4-1v17.72h2V1.8h-2zm0 17.72c0 3.299-1.014 5.685-2.929 7.32l1.298 1.52c2.459-2.098 3.631-5.099 3.631-8.84h-2zm-2.934 7.323c-1.911 1.652-4.799 2.557-8.826 2.557v2c4.293 0 7.725-.961 10.134-3.043l-1.308-1.514zm-8.826 2.557c-4.03 0-6.921-.893-8.832-2.521l-1.297 1.522c2.409 2.052 5.839 2.999 10.129 2.999v-2zm-8.826-2.517c-1.889-1.631-2.894-4.03-2.894-7.363h-2c0 3.76 1.154 6.775 3.586 8.877l1.308-1.514zM784.023 1.8h1v-1h-1v1zm0 5.6v1h1v-1h-1zm-9.2 0v-1h-1v1h1zm0 22.6v1h1v-1h-1zm-6.4 0h-1v1h1v-1zm0-22.6h1v-1h-1v1zm-9.24 0h-1v1h1v-1zm0-5.6v-1h-1v1h1zm23.84 0v5.6h2V1.8h-2zm1 4.6h-9.2v2h9.2v-2zm-10.2 1V30h2V7.4h-2zm1 21.6h-6.4v2h6.4v-2zm-5.4 1V7.4h-2V30h2zm-1-23.6h-9.24v2h9.24v-2zm-8.24 1V1.8h-2v5.6h2zm-1-4.6h24.84v-2h-24.84v2zm49.564 25.44l-.595-.804.595.804zm-19.84-.68l-.66.752.01.008.65-.76zm-3.28-8.44v-1h-1v1h1zm6.4 0h1v-1h-1v1zm1.72 4.44l-.585.811.009.007.576-.818zm10.56-2.84l-.621.784.01.008.011.008.6-.8zm-2.04-1.16l-.378.926.015.006.015.006.348-.938zm-3.36-1.2l-.317.949.317-.949zm-.4-.12l-.243.97.243-.97zm-.4-.12l-.372.928.027.011.028.01.317-.949zm-.4-.16l.371-.928-.025-.01-.025-.009-.321.947zm-2.92-1l-.365.931.018.007.018.006.329-.944zm-2.48-1l-.4.917.01.004.01.004.38-.925zm-2.32-1.24l-.641.768.023.02.024.017.594-.805zm-1.56-1.48l.723-.69-.723.69zm-1.2-1.96l-.959.284.005.016.005.016.949-.316zm2.48-7.96l-.561-.828-.005.003.566.825zm17.64.88l-.664.748.006.005.658-.753zm3.16 7.2v1h1v-1h-1zm-6.4 0h-1v1h1v-1zm-9.88-.76l.546-.838-.546.838zm4.28 1.72l.324-.946-.008-.003-.316.949zm7.52 2.84l.449-.893-.008-.005-.009-.004-.432.902zm4.64 7.04c0 2.264-.84 3.957-2.515 5.196l1.189 1.608c2.218-1.64 3.326-3.948 3.326-6.804h-2zm-2.515 5.196c-1.69 1.25-4.482 1.964-8.565 1.964v2c4.236 0 7.55-.726 9.754-2.356l-1.189-1.608zm-8.565 1.964c-4.819 0-8.087-.937-10.03-2.6l-1.3 1.52c2.482 2.124 6.335 3.08 11.33 3.08v-2zm-10.021-2.591c-1.914-1.681-2.939-4.186-2.939-7.689h-2c0 3.91 1.161 7.032 3.62 9.191l1.319-1.502zm-3.939-6.689h6.4v-2h-6.4v2zm5.4-1c0 2.284.615 4.155 2.135 5.251l1.169-1.622c-.773-.557-1.304-1.647-1.304-3.629h-2zm2.144 5.258c1.441 1.015 3.726 1.422 6.616 1.422v-2c-2.817 0-4.559-.42-5.464-1.058l-1.152 1.636zm6.616 1.422c1.87 0 3.412-.207 4.522-.709.567-.257 1.064-.61 1.42-1.093a2.776 2.776 0 00.538-1.678h-2a.784.784 0 01-.148.492c-.101.137-.288.3-.635.457-.717.325-1.915.531-3.697.531v2zm6.48-3.48c0-1.007-.567-1.805-1.36-2.4l-1.2 1.6c.486.365.56.634.56.8h2zm-1.34-2.384a8.428 8.428 0 00-2.313-1.314l-.695 1.876c.616.228 1.204.56 1.767 1.006l1.241-1.568zm-2.283-1.302c-.752-.306-1.897-.715-3.421-1.223l-.633 1.898c1.516.505 2.611.897 3.299 1.177l.755-1.852zm-3.421-1.223a6.603 6.603 0 00-.474-.141l-.485 1.94c.072.018.179.05.326.099l.633-1.898zm-.474-.141a4.822 4.822 0 01-.326-.099l-.633 1.898c.173.057.333.106.474.141l.485-1.94zm-.271-.078l-.05-.02-.05-.02-.05-.02-.05-.02a8.33 8.33 0 00-.2-.08l-.743 1.857a2.082 2.082 0 01.1.04 2.082 2.082 0 01.1.04c.054.02.147.058.2.08l.743-1.857zm-.45-.179a494.178 494.178 0 01-2.913-.998l-.657 1.89c.617.214 1.593.548 2.927 1.002l.643-1.894zm-2.877-.984c-.606-.237-1.427-.568-2.465-.994l-.759 1.85c1.042.428 1.874.763 2.495 1.006l.729-1.862zm-2.445-.986c-1.017-.443-1.71-.821-2.126-1.128l-1.187 1.61c.597.44 1.451.888 2.514 1.352l.799-1.834zm-2.079-1.091a18.25 18.25 0 01-1.477-1.402l-1.447 1.38a20.152 20.152 0 001.643 1.558l1.281-1.536zm-1.477-1.402a4.206 4.206 0 01-.975-1.586l-1.897.632a6.21 6.21 0 001.425 2.335l1.447-1.381zm-.965-1.554c-.181-.611-.278-1.326-.278-2.156h-2c0 .984.115 1.895.361 2.724l1.917-.568zm-.278-2.156c0-2.094.789-3.615 2.365-4.695l-1.131-1.65c-2.157 1.48-3.234 3.639-3.234 6.345h2zm2.36-4.692c1.657-1.12 4.185-1.748 7.72-1.748v-2c-3.719 0-6.711.652-8.841 2.092l1.121 1.656zm7.72-1.748c4.001 0 6.842.905 8.696 2.548l1.327-1.496C805.651 1.362 802.252.4 797.987.4v2zm8.702 2.553c1.875 1.638 2.818 3.757 2.818 6.447h2c0-3.23-1.165-5.911-3.503-7.953l-1.315 1.506zm3.818 5.447h-6.4v2h6.4v-2zm-5.4 1c0-1.727-.619-3.157-1.947-4.112-1.266-.91-3.044-1.288-5.173-1.288v2c1.95 0 3.232.356 4.006.912.712.512 1.114 1.282 1.114 2.488h2zm-7.12-5.4c-1.604 0-2.943.173-3.917.606-.498.222-.946.531-1.271.964a2.472 2.472 0 00-.492 1.51h2a.48.48 0 01.092-.31c.066-.087.202-.211.484-.336.586-.26 1.587-.434 3.104-.434V6zm-5.68 3.08c0 1.031.525 1.844 1.373 2.398l1.093-1.676c-.378-.246-.466-.473-.466-.722h-2zm1.373 2.398c.741.483 2.298 1.093 4.51 1.83l.633-1.897c-2.268-.756-3.565-1.292-4.05-1.609l-1.093 1.676zm4.502 1.828c3.74 1.282 6.193 2.211 7.412 2.796l.865-1.804c-1.341-.642-3.901-1.606-7.628-2.884l-.649 1.892zm7.395 2.787c3.612 1.819 5.09 3.898 5.09 6.147h2c0-3.351-2.283-5.965-6.191-7.933l-.899 1.786zm12.066 13.067l-.741.671.011.013.011.011.719-.695zm0-6.32l-.719-.695-.006.006-.005.006.73.683zm6.4.04l-.718.696.005.005.006.006.707-.707zm0 6.28l.707.707.006-.006.005-.005-.718-.696zm-3.2.24c-1.109 0-1.9-.335-2.482-.935l-1.437 1.39c1.019 1.053 2.361 1.545 3.919 1.545v-2zm-2.459-.912c-.588-.648-.901-1.466-.901-2.528h-2c0 1.498.46 2.813 1.419 3.871l1.482-1.343zm-.901-2.528c0-1.03.309-1.816.89-2.437l-1.46-1.366c-.966 1.032-1.43 2.326-1.43 3.803h2zm.878-2.425c.582-.6 1.373-.935 2.482-.935v-2c-1.558 0-2.9.492-3.919 1.545l1.437 1.39zm2.482-.935c1.066 0 1.863.337 2.482.976l1.436-1.392c-1.035-1.068-2.371-1.584-3.918-1.584v2zm2.493.987c.629.63.947 1.397.947 2.373h2c0-1.477-.509-2.763-1.533-3.787l-1.414 1.414zm.947 2.373c0 1.042-.327 1.853-.958 2.504l1.436 1.392c1.022-1.055 1.522-2.378 1.522-3.896h-2zm-.947 2.493c-.617.616-1.418.947-2.493.947v2c1.538 0 2.87-.496 3.907-1.533l-1.414-1.414zm30.681-.213l-.595-.804.595.804zm-19.84-.68l-.66.752.01.008.65-.76zm-3.28-8.44v-1h-1v1h1zm6.4 0h1v-1h-1v1zm1.72 4.44l-.585.811.009.007.576-.818zm10.56-2.84l-.621.784.01.008.011.008.6-.8zm-2.04-1.16l-.377.926.014.006.016.006.347-.938zm-3.36-1.2l-.316.949.316-.949zm-.4-.12l-.243.97.243-.97zm-.4-.12l-.372.928.028.011.028.01.316-.949zm-.4-.16l.371-.928-.024-.01-.025-.009-.322.947zm-2.92-1l-.365.931.018.007.018.006.329-.944zm-2.48-1l-.4.917.01.004.01.004.38-.925zm-2.32-1.24l-.64.768.023.02.024.017.593-.805zm-1.56-1.48l.723-.69-.723.69zm-1.2-1.96l-.959.284.005.016.005.016.949-.316zm2.48-7.96l-.56-.828-.006.003.566.825zm17.64.88l-.663.748.005.005.658-.753zm3.16 7.2v1h1v-1h-1zm-6.4 0h-1v1h1v-1zm-9.88-.76l.546-.838-.546.838zm4.28 1.72l.324-.946-.008-.003-.316.949zm7.52 2.84l.45-.893-.009-.005-.009-.004-.432.902zm4.64 7.04c0 2.264-.84 3.957-2.515 5.196l1.19 1.608c2.218-1.64 3.325-3.948 3.325-6.804h-2zm-2.515 5.196c-1.689 1.25-4.481 1.964-8.565 1.964v2c4.236 0 7.551-.726 9.755-2.356l-1.19-1.608zm-8.565 1.964c-4.819 0-8.086-.937-10.03-2.6l-1.3 1.52c2.483 2.124 6.335 3.08 11.33 3.08v-2zm-10.02-2.591c-1.914-1.681-2.94-4.186-2.94-7.689h-2c0 3.91 1.161 7.032 3.62 9.191l1.32-1.502zm-3.94-6.689h6.4v-2h-6.4v2zm5.4-1c0 2.284.615 4.155 2.135 5.251l1.17-1.622c-.773-.557-1.305-1.647-1.305-3.629h-2zm2.144 5.258c1.441 1.015 3.726 1.422 6.616 1.422v-2c-2.817 0-4.559-.42-5.464-1.058l-1.152 1.636zm6.616 1.422c1.871 0 3.413-.207 4.522-.709.567-.257 1.064-.61 1.421-1.093a2.782 2.782 0 00.537-1.678h-2a.784.784 0 01-.148.492c-.1.137-.288.3-.634.457-.718.325-1.916.531-3.698.531v2zm6.48-3.48c0-1.007-.567-1.805-1.36-2.4l-1.2 1.6c.487.365.56.634.56.8h2zm-1.339-2.384a8.448 8.448 0 00-2.314-1.314l-.694 1.876c.615.228 1.203.56 1.766 1.006l1.242-1.568zm-2.284-1.302c-.751-.306-1.897-.715-3.421-1.223l-.632 1.898c1.516.505 2.61.897 3.299 1.177l.754-1.852zm-3.421-1.223a6.603 6.603 0 00-.474-.141l-.485 1.94c.073.018.18.05.327.099l.632-1.898zm-.474-.141a4.822 4.822 0 01-.326-.099l-.632 1.898c.173.057.332.106.473.141l.485-1.94zm-.271-.078a3.47 3.47 0 00-.1-.04 3.47 3.47 0 00-.1-.04 55.526 55.526 0 00-.2-.08l-.743 1.857a2.082 2.082 0 01.1.04 2.082 2.082 0 01.1.04c.054.02.147.058.2.08l.743-1.857zm-.449-.179a500.998 500.998 0 01-2.914-.998l-.657 1.89c.617.214 1.593.548 2.927 1.002l.644-1.894zm-2.878-.984c-.606-.237-1.427-.568-2.465-.994l-.759 1.85c1.042.428 1.875.763 2.495 1.006l.729-1.862zm-2.445-.986c-1.016-.443-1.709-.821-2.126-1.128l-1.186 1.61c.596.44 1.45.888 2.513 1.352l.799-1.834zm-2.079-1.091a18.25 18.25 0 01-1.477-1.402l-1.446 1.38a19.83 19.83 0 001.643 1.558l1.28-1.536zm-1.477-1.402a4.203 4.203 0 01-.974-1.586l-1.898.632a6.2 6.2 0 001.426 2.335l1.446-1.381zm-.964-1.554c-.181-.611-.279-1.326-.279-2.156h-2c0 .984.115 1.895.361 2.724l1.918-.568zm-.279-2.156c0-2.094.79-3.615 2.365-4.695l-1.131-1.65c-2.157 1.48-3.234 3.639-3.234 6.345h2zm2.36-4.692c1.657-1.12 4.185-1.748 7.72-1.748v-2c-3.719 0-6.71.652-8.84 2.092l1.12 1.656zm7.72-1.748c4.001 0 6.842.905 8.697 2.548l1.326-1.496C850.921 1.362 847.522.4 843.257.4v2zm8.702 2.553c1.875 1.638 2.818 3.757 2.818 6.447h2c0-3.23-1.164-5.911-3.502-7.953l-1.316 1.506zm3.818 5.447h-6.4v2h6.4v-2zm-5.4 1c0-1.727-.619-3.157-1.946-4.112-1.267-.91-3.044-1.288-5.174-1.288v2c1.95 0 3.233.356 4.006.912.712.512 1.114 1.282 1.114 2.488h2zm-7.12-5.4c-1.603 0-2.942.173-3.916.606-.499.222-.947.531-1.272.964a2.478 2.478 0 00-.492 1.51h2a.48.48 0 01.092-.31c.066-.087.203-.211.484-.336.586-.26 1.587-.434 3.104-.434V6zm-5.68 3.08c0 1.031.525 1.844 1.374 2.398l1.092-1.676c-.378-.246-.466-.473-.466-.722h-2zm1.374 2.398c.741.483 2.298 1.093 4.51 1.83l.632-1.897c-2.268-.756-3.564-1.292-4.05-1.609l-1.092 1.676zm4.502 1.828c3.739 1.282 6.192 2.211 7.412 2.796l.864-1.804c-1.34-.642-3.901-1.606-7.628-2.884l-.648 1.892zm7.394 2.787c3.612 1.819 5.09 3.898 5.09 6.147h2c0-3.351-2.282-5.965-6.19-7.933l-.9 1.786zM876.864 2.16l-.174.985h.003l.171-.985zm3.88 1.36l-.486.874.008.005.478-.879zm3.04 12.48l-.942-.335.942.335zm-1.72 2.88l-.707-.707-.007.007-.007.006.721.694zm-2.72 1.72l.336.942.01-.004.01-.003-.356-.935zm-3.4.8l.115.993-.115-.993zm-7.8.2v-1h-1v1h1zm0 8.4v1h1v-1h-1zm-6.4 0h-1v1h1v-1zm0-28.2v-1h-1v1h1zm14.96 13.44l.51.86.008-.005-.518-.855zm0-7.04l-.53.848.015.01.016.009.499-.867zm-8.56-.8v-1h-1v1h1zm0 8.6h-1v1h1v-1zm3.72-13.2c1.937 0 3.542.118 4.826.345l.348-1.97C875.602.922 873.873.8 871.864.8v2zm4.829.345c1.279.222 2.466.638 3.565 1.25l.971-1.75a13.21 13.21 0 00-4.195-1.47l-.341 1.97zm3.573 1.254c1.021.555 1.796 1.397 2.326 2.572l1.823-.822c-.696-1.545-1.762-2.73-3.194-3.508l-.955 1.758zm2.326 2.572c.538 1.192.832 2.747.832 4.709h2c0-2.145-.319-4.003-1.009-5.531l-1.823.822zm.832 4.709c0 1.6-.204 2.92-.582 3.985l1.884.67c.475-1.336.698-2.895.698-4.655h-2zm-.582 3.985c-.39 1.094-.893 1.916-1.485 2.508l1.414 1.414c.848-.848 1.491-1.946 1.955-3.252l-1.884-.67zm-1.499 2.521c-.572.595-1.346 1.095-2.355 1.48l.712 1.869c1.23-.47 2.27-1.116 3.084-1.961l-1.441-1.388zm-2.336 1.472a14.4 14.4 0 01-3.179.749l.231 1.986a16.35 16.35 0 003.621-.851l-.673-1.884zm-3.179.749c-1.097.127-2.417.193-3.964.193v2c1.599 0 2.999-.068 4.195-.207l-.231-1.986zm-3.964.193h-3.72v2h3.72v-2zm-4.72 1V30h2v-8.4h-2zm1 7.4h-6.4v2h6.4v-2zm-5.4 1V1.8h-2V30h2zm-1-27.2h10.12v-2h-10.12v2zm10.52 14.2c2.126 0 3.847-.245 4.95-.9l-1.021-1.72c-.603.358-1.842.62-3.929.62v2zm4.958-.905c1.356-.822 1.802-2.5 1.802-4.415h-2c0 1.765-.434 2.46-.839 2.705l1.037 1.71zm1.802-4.415c0-1.888-.447-3.555-1.821-4.347l-.998 1.734c.385.221.819.875.819 2.613h2zm-1.79-4.328c-1.11-.694-2.841-.952-4.97-.952v2c2.084 0 3.313.275 3.91.648l1.06-1.696zm-4.97-.952h-4.12v2h4.12v-2zm-5.12 1V16h2V7.4h-2zm1 9.6h4.12v-2h-4.12v2zm39.686 13l-.962.273.206.727h.756v-1zm-2.56-9.04l.962-.273-.206-.727h-.756v1zm-11.44 0v-1h-.76l-.204.732.964.268zM891.31 30v1h.759l.204-.732-.963-.268zm-6.48 0l-.961-.277-.368 1.277h1.329v-1zm8.12-28.2v-1h-.753l-.208.723.961.277zm13.2 0l.96-.278-.209-.722h-.751v1zm8.16 28.2v1h1.33l-.37-1.278-.96.278zm-18.92-14.64l-.963-.27-.357 1.27h1.32v-1zm8.32 0v1h1.319l-.357-1.27-.962.27zM900.35 3.4l.962-.27-.205-.73h-.757v1zm-1.6 0v-1h-.758l-.205.73.963.27zm10.042 26.328l-2.56-9.04-1.924.545 2.56 9.04 1.924-.546zm-3.522-9.768h-11.44v2h11.44v-2zm-12.404.732l-2.52 9.04 1.927.537 2.52-9.04-1.927-.537zM891.31 29h-6.48v2h6.48v-2zm-5.519 1.277l8.12-28.2-1.922-.554-8.12 28.2 1.922.554zM892.95 2.8h13.2v-2h-13.2v2zm12.239-.722l8.16 28.2 1.921-.556-8.16-28.2-1.921.556zM914.31 29h-6.48v2h6.48v-2zm-18.92-12.64h8.32v-2h-8.32v2zm9.282-1.27l-3.36-11.96-1.925.54 3.36 11.96 1.925-.54zM900.35 2.4h-1.6v2h1.6v-2zm-2.563.73l-3.36 11.96 1.925.54 3.36-11.96-1.925-.54zm22.474 2.39l-.721-.693.721.693zm20.12-1.08l-.637.771.009.007.628-.778zm4.36 8.24v1h1.129l-.137-1.121-.992.121zm-6.4 0l-.985.174.146.826h.839v-1zm-2.48-4.2l.594-.804-.594.804zm-10.92.84l.719.694.006-.006-.725-.688zm0 13.16l-.726.688.726-.688zm10.92.84l.595.804.01-.008-.605-.796zm2.48-4.24v-1h-.839l-.146.826.985.174zm6.4 0l.992.12.136-1.12h-1.128v1zm-4.36 8.32l.631.775h.001l-.632-.775zm-20.12-1.08l-.725.69.007.006.718-.696zm-2.92-10.44c0-3.96 1.227-7.155 3.641-9.667l-1.442-1.386c-2.813 2.928-4.199 6.639-4.199 11.053h2zm3.641-9.667c2.421-2.52 5.665-3.813 9.839-3.813v-2c-4.626 0-8.423 1.453-11.281 4.427l1.442 1.386zm9.839-3.813c3.743 0 6.687.964 8.923 2.811l1.274-1.542C938.346 1.462 934.917.4 930.821.4v2zm8.932 2.818c2.255 1.82 3.596 4.319 3.995 7.583l1.985-.242c-.454-3.722-2.02-6.716-4.725-8.897l-1.255 1.556zm4.988 6.462h-6.4v2h6.4v-2zm-5.416.826c-.359-2.035-1.307-3.674-2.87-4.83l-1.189 1.608c1.104.817 1.809 1.978 2.09 3.57l1.969-.348zm-2.87-4.83C934.919 6.54 933.046 6 930.901 6v2c1.801 0 3.234.447 4.365 1.284l1.189-1.608zM930.901 6c-2.729 0-4.997.851-6.686 2.632l1.451 1.376C926.911 8.696 928.616 8 930.901 8V6zm-6.68 2.626c-1.702 1.764-2.48 4.235-2.48 7.254h2c0-2.687.688-4.59 1.919-5.866l-1.439-1.388zm-2.48 7.254c0 3.02.778 5.5 2.474 7.288l1.451-1.376c-1.237-1.305-1.925-3.226-1.925-5.912h-2zm2.474 7.288c1.689 1.781 3.957 2.632 6.686 2.632v-2c-2.285 0-3.99-.696-5.235-2.008l-1.451 1.376zm6.686 2.632c2.145 0 4.018-.54 5.554-1.676l-1.189-1.608c-1.131.837-2.564 1.284-4.365 1.284v2zm5.565-1.684c1.554-1.181 2.5-2.828 2.859-4.862l-1.969-.348c-.281 1.593-.988 2.773-2.1 3.618l1.21 1.592zm1.875-4.036h6.4v-2h-6.4v2zm5.407-1.12c-.399 3.293-1.742 5.82-4 7.666l1.265 1.548c2.702-2.208 4.266-5.227 4.72-8.974l-1.985-.24zm-3.999 7.665c-2.236 1.822-5.182 2.775-8.928 2.775v2c4.093 0 7.52-1.047 10.191-3.225l-1.263-1.55zm-8.928 2.775c-4.177 0-7.422-1.282-9.843-3.776l-1.435 1.393c2.859 2.945 6.654 4.383 11.278 4.383v-2zm-9.836-3.77c-2.416-2.539-3.644-5.762-3.644-9.75h-2c0 4.439 1.385 8.175 4.195 11.13l1.449-1.38zM949.942 30h-1v1h1v-1zm0-28.2v-1h-1v1h1zm20.12 0h1v-1h-1v1zm0 5.6v1h1v-1h-1zm-13.72 0v-1h-1v1h1zm0 5.68h-1v1h1v-1zm11.72 0h1v-1h-1v1zm0 5.6v1h1v-1h-1zm-11.72 0v-1h-1v1h1zm0 5.72h-1v1h1v-1zm13.72 0h1v-1h-1v1zm0 5.6v1h1v-1h-1zm-19.12 0V1.8h-2V30h2zm-1-27.2h20.12v-2h-20.12v2zm19.12-1v5.6h2V1.8h-2zm1 4.6h-13.72v2h13.72v-2zm-14.72 1v5.68h2V7.4h-2zm1 6.68h11.72v-2h-11.72v2zm10.72-1v5.6h2v-5.6h-2zm1 4.6h-11.72v2h11.72v-2zm-12.72 1v5.72h2v-5.72h-2zm1 6.72h13.72v-2h-13.72v2zm12.72-1V30h2v-5.6h-2zm1 4.6h-20.12v2h20.12v-2z" fill="#fff"/></svg>